<svg width="89" height="89" viewBox="0 0 89 89" fill="none" xmlns="http://www.w3.org/2000/svg">
<g clip-path="url(#clip0_32_3619)">
<path d="M5.754 2.43365C3.8245 3.12896 2.2079 4.58911 1.18232 6.53599C-0.086629 8.93481 0.000285073 6.95318 0.000285073 36.0694C0.000285073 65.1856 -0.086629 63.204 1.18232 65.6028C2.22529 67.5844 3.85927 69.0272 5.87568 69.7225C6.74482 70.018 7.40536 70.0528 13.0548 70.0528H19.2778L19.7298 69.653C20.0774 69.3749 20.2165 69.0446 20.286 68.4709C20.3729 67.7582 20.3208 67.6018 19.8515 67.0803L19.33 66.4893L13.1765 66.4024C7.162 66.3155 7.02294 66.3155 6.39716 65.9157C5.51064 65.3768 4.72841 64.4207 4.18954 63.2735L3.73759 62.3174L3.68544 45.5778L3.65068 28.8555H41.3714H79.0921V37.6338V46.4122H78.3099C77.3712 46.4122 76.6063 46.7077 75.8415 47.3508L75.2852 47.8202L73.7556 47.2118L72.2259 46.6034L72.1216 45.7516C71.9651 44.587 71.5306 43.7352 70.7136 43.0399C69.7227 42.1881 68.9057 42.0143 66.1245 42.1012C63.8474 42.1534 63.6561 42.1881 62.8739 42.6401C61.7962 43.2833 61.014 44.587 61.014 45.769C61.014 46.4991 60.9618 46.6208 60.5446 46.7946C60.2665 46.8989 59.5712 47.1944 58.9802 47.4725C57.9372 47.9418 57.9024 47.9418 57.6069 47.6116C56.6683 46.5686 54.4259 46.1166 53.0526 46.6729C52.2878 47.0032 49.2979 49.8887 48.846 50.7579C48.1159 52.2006 48.2897 53.8694 49.3153 55.2252L49.9063 56.0075L49.2979 57.4155L48.6895 58.8409L47.8378 58.9452C46.6905 59.1016 45.8388 59.5188 45.1261 60.3184C44.3265 61.2049 44.1526 61.9176 44.1526 64.3512V66.4024H38.9378C33.1667 66.4024 32.9407 66.4372 32.4018 67.4627C32.0716 68.1059 32.1933 68.9577 32.6626 69.5661L32.9929 69.9659L40.8499 70.0528L48.6895 70.1397L49.2979 71.652L49.9237 73.1817L49.437 73.7379C48.7417 74.5723 48.4983 75.3024 48.4983 76.4844C48.4983 77.9446 48.846 78.5182 50.9667 80.5868C52.6181 82.2034 52.844 82.3772 53.7306 82.5684C55.0169 82.8465 56.1989 82.5858 57.2766 81.7688C58.0415 81.1778 58.0589 81.1604 58.6151 81.4559C58.928 81.6124 59.5712 81.8731 60.0405 82.0469L60.927 82.3424L61.0313 83.3159C61.1704 84.55 61.8483 85.7321 62.787 86.3579C63.4823 86.8098 63.604 86.8272 66.2809 86.8793C69.4968 86.9489 70.1921 86.775 71.1134 85.7495C71.8261 84.9325 72.139 84.1502 72.139 83.229V82.4815L73.7208 81.8036L75.3026 81.143L75.7546 81.5776C76.6063 82.3598 77.3538 82.6379 78.588 82.6379C79.4919 82.6379 79.8743 82.551 80.5001 82.186C81.404 81.6471 83.9593 79.0745 84.3591 78.2922C85.0718 76.9016 84.8632 75.0764 83.8724 73.9118L83.2813 73.2338L83.9245 71.6346L84.5503 70.0528H85.3499C86.8796 70.0354 88.4093 68.9229 88.8265 67.4975C88.9481 67.0803 89.0003 65.794 88.9655 64.1252C88.9134 61.4483 88.9134 61.4135 88.4093 60.6834C87.7487 59.7448 86.6536 59.1016 85.4716 58.9799L84.5503 58.893L83.9245 57.4155L83.2987 55.9379L83.8897 55.1731C84.6024 54.2344 84.8979 53.2088 84.7763 52.1137C84.6546 51.1055 84.3765 50.5493 83.4552 49.5063L82.7425 48.7067V29.603C82.7425 13.437 82.6903 10.3254 82.4817 9.29986C81.8733 6.41431 80.1003 3.9981 77.7362 2.83345L76.4151 2.1729L41.5626 2.13814C7.31845 2.10337 6.67528 2.10337 5.754 2.43365ZM76.2587 6.25787C77.3017 6.84888 77.8405 7.49204 78.5184 8.9522L79.0052 9.99517L79.0573 17.5915L79.1095 25.2051H41.3714H3.63329L3.68544 17.5045L3.73759 9.82134L4.24169 8.74361C4.78056 7.57896 5.87568 6.39693 6.83173 5.99712C7.30107 5.78853 12.7593 5.75376 41.3714 5.73638H75.3548L76.2587 6.25787ZM68.4886 47.2813C68.6102 49.4368 68.6102 49.4368 71.1829 50.2364C71.8608 50.445 72.9733 50.9317 73.6686 51.2967C75.546 52.3049 76.1196 52.2528 77.5102 50.9838L78.588 50.0104L79.8917 51.2967L81.178 52.5657L80.3263 53.4522C78.814 54.9993 78.7792 55.3643 79.8569 57.5024C80.2741 58.3541 80.7956 59.6231 81.0042 60.3358C81.5778 62.2131 81.8733 62.4739 83.7507 62.5782L85.263 62.6651L85.3151 64.525L85.3673 66.4024H84.0114C81.9081 66.4024 81.63 66.6631 80.8999 69.0793C80.7261 69.653 80.2567 70.7655 79.8395 71.5651C78.7792 73.6163 78.814 73.9639 80.1524 75.3719L81.2302 76.467L80.0481 77.7012C79.3876 78.3618 78.7444 78.918 78.6054 78.918C78.4663 78.918 77.8927 78.4834 77.3364 77.962C76.0849 76.7799 75.5634 76.7104 73.9641 77.5969C73.3905 77.9272 72.0868 78.4834 71.096 78.8137C68.6972 79.6307 68.5929 79.7524 68.5059 81.7166L68.4538 83.2811L66.5938 83.229L64.7513 83.1768L64.6643 81.6645C64.56 79.7872 64.2993 79.4916 62.4393 78.9354C61.744 78.7268 60.4925 78.2053 59.6755 77.7881C57.5374 76.6756 57.1202 76.7104 55.7296 78.0489L54.6518 79.0745L53.4003 77.8229C52.705 77.1276 52.1487 76.4844 52.1487 76.3975C52.1487 76.3106 52.5833 75.7891 53.1222 75.2502C54.3911 73.9813 54.4259 73.4772 53.4003 71.6172C53.0179 70.9045 52.4964 69.6356 52.2356 68.8012C51.5925 66.75 51.3317 66.5241 49.4022 66.4024L47.8899 66.3155V64.4903V62.6651L49.3849 62.6129C51.297 62.5434 51.6099 62.3 52.1487 60.4748C52.3573 59.7622 52.8788 58.4932 53.296 57.6588C54.3563 55.5208 54.339 55.0862 53.1048 53.7477C52.5833 53.1741 52.1487 52.6352 52.1487 52.5483C52.1487 52.4614 52.6876 51.853 53.3481 51.2098L54.5649 50.0104L55.6079 50.9838C57.1028 52.3571 57.3983 52.3918 59.5538 51.3141C60.4925 50.8274 61.8309 50.2711 62.5089 50.0799C64.2472 49.5758 64.56 49.1934 64.6296 47.4899C64.6643 46.7598 64.7165 46.0471 64.7513 45.9254C64.8208 45.769 65.2901 45.7168 66.6112 45.7516L68.4016 45.8038L68.4886 47.2813Z" fill="#BBE128"/>
<path d="M14.0627 9.96035C12.1854 10.76 11.0034 12.1158 10.4993 14.0627C9.82133 16.7744 11.125 19.6252 13.6456 20.8768C14.393 21.2418 14.7581 21.2939 16.253 21.2939C17.7131 21.2939 18.1303 21.2244 18.7909 20.8941C20.0772 20.2684 20.9637 19.3818 21.5895 18.1129C22.111 17.0699 22.1631 16.8092 22.1631 15.4707C22.1457 14.3234 22.0588 13.802 21.7633 13.1414C21.1723 11.8377 20.3032 10.899 19.0864 10.2559C18.1303 9.73438 17.8 9.66484 16.5137 9.6127C15.2622 9.56055 14.8797 9.6127 14.0627 9.96035ZM17.4002 13.6107C17.7305 13.8193 18.1303 14.3061 18.3215 14.6711C18.7213 15.5055 18.5127 16.3572 17.7305 17.1221C17.2612 17.574 17.0526 17.6436 16.253 17.6436C15.4534 17.6436 15.2448 17.574 14.7928 17.1395C14.1497 16.5137 13.8715 15.6619 14.0801 14.9318C14.2713 14.2713 14.5321 13.941 15.21 13.5238C15.9053 13.1066 16.6875 13.124 17.4002 13.6107Z" fill="#BBE128"/>
<path d="M29.5508 9.85607C27.9863 10.3949 26.926 11.3684 26.0568 13.0371C25.7092 13.6977 25.657 14.0801 25.6396 15.4707C25.6396 17.4697 26.0047 18.3737 27.3779 19.7469C28.6295 20.9985 29.8463 21.433 31.8105 21.3461C33.5488 21.2592 34.6092 20.8072 35.7738 19.6252C39.4416 15.9053 36.7299 9.5258 31.4977 9.56057C30.8545 9.57795 29.9854 9.69963 29.5508 9.85607ZM32.5232 13.4717C33.6531 14.0627 34.1051 15.8184 33.3576 16.7571C32.2625 18.1477 30.2113 17.9738 29.4812 16.4442C29.1336 15.7141 29.1336 15.2447 29.4465 14.6363C30.107 13.3674 31.376 12.8807 32.5232 13.4717Z" fill="#BBE128"/>
<path d="M50.2884 9.80395C48.637 10.3254 47.1943 11.6987 46.5685 13.3674C46.0818 14.6885 46.1513 16.9135 46.7423 18.0782C47.2812 19.1385 48.3937 20.2684 49.454 20.8247L50.3232 21.294L59.5361 21.3461C69.7919 21.3983 69.6876 21.4157 71.3042 20.2336C72.973 18.9995 73.9464 16.5832 73.564 14.5668C73.1816 12.5157 72.0169 10.9512 70.2265 10.0995L69.2704 9.6475L60.1445 9.61274C53.0001 9.59536 50.862 9.63012 50.2884 9.80395ZM68.662 13.4717C70.3308 14.3235 70.3308 16.618 68.662 17.4698C68.2448 17.6957 66.8542 17.7305 59.8837 17.7305C50.7577 17.7305 50.9142 17.7479 50.2362 16.6354C49.5583 15.5229 50.0103 13.9584 51.1575 13.4717C52.0093 13.0893 67.932 13.0893 68.662 13.4717Z" fill="#BBE128"/>
<path d="M64.3166 53.9736C62.4044 54.4082 60.4228 55.5033 59.0148 56.9287C54.4953 61.4308 54.8255 68.749 59.7449 72.8514C60.84 73.7726 63.0824 74.8504 64.4556 75.1111C65.9332 75.3892 68.6275 75.2328 70.0703 74.7635C73.0601 73.8248 75.7023 71.2 76.78 68.1406C77.371 66.4197 77.5275 63.708 77.1103 62.0566C76.189 58.4062 73.4425 55.4164 69.966 54.3039C68.2103 53.7476 65.9158 53.6086 64.3166 53.9736ZM67.8105 57.5371C70.0529 57.9543 71.9302 59.3971 72.9558 61.5004C73.5816 62.7519 73.6164 62.9084 73.6164 64.4728C73.599 66.8195 73.1818 67.8277 71.5478 69.4617C69.9138 71.0957 68.9056 71.5129 66.5763 71.5303C65.0814 71.5303 64.8207 71.4781 63.7603 70.974C60.7878 69.566 59.0669 66.4545 59.6058 63.482C60.1621 60.5096 62.1959 58.3367 65.0988 57.6066C66.2113 57.3285 66.6632 57.3285 67.8105 57.5371Z" fill="#BBE128"/>
<path d="M27.0303 38.9897C26.6131 39.3374 26.3871 40.1196 24.7705 46.9337C23.7623 51.0882 22.9453 54.7559 22.9453 55.0688C22.9453 56.7897 25.7961 57.3286 26.4219 55.7294C26.5088 55.5034 27.3605 52.0094 28.334 47.9593C30.2287 40.0501 30.2635 39.685 29.4639 38.9723C28.8381 38.4509 27.6561 38.4509 27.0303 38.9897Z" fill="#BBE128"/>
<path d="M16.0621 39.9631C15.5754 40.1717 10.882 45.2997 10.2388 46.3252C9.76951 47.0901 9.78689 48.4807 10.291 49.1239C11.2992 50.4102 15.3668 54.8776 15.784 55.1383C16.5488 55.6424 17.331 55.5381 18.009 54.8602C18.6521 54.217 18.7738 53.5043 18.3914 52.7916C18.2871 52.583 17.2615 51.3836 16.1316 50.1147C15.0017 48.8631 14.0804 47.7506 14.0804 47.6637C14.0804 47.5768 14.9844 46.4991 16.0969 45.2649C18.374 42.7096 18.7043 42.1881 18.5304 41.3364C18.3392 40.2586 17.0529 39.5459 16.0621 39.9631Z" fill="#BBE128"/>
<path d="M35.5305 39.9631C34.9048 40.2413 34.418 41.0061 34.418 41.7362C34.418 42.4489 34.3311 42.3446 37.9467 46.3948C38.4856 47.0205 38.9376 47.5942 38.9376 47.6637C38.9376 47.7332 38.0163 48.8284 36.8864 50.0973C35.7391 51.3663 34.7309 52.583 34.6266 52.7916C33.7923 54.3387 35.6175 56.0944 37.1298 55.2252C37.5643 54.9819 42.3272 49.6801 42.7792 48.9327C43.1616 48.3416 43.2137 47.0379 42.8835 46.4817C42.6575 46.0645 38.2075 41.0235 37.4948 40.3629C37.0255 39.9284 36.0868 39.7371 35.5305 39.9631Z" fill="#BBE128"/>
<path d="M25.4832 66.6631C24.7531 67.0455 24.5271 67.4453 24.5098 68.2797C24.5098 69.3574 25.2051 70.0527 26.3176 70.0527C27.3953 70.0527 27.9863 69.5312 28.108 68.4709C28.1949 67.7756 28.1428 67.6018 27.7082 67.115C27.0998 66.4371 26.2133 66.2633 25.4832 66.6631Z" fill="#BBE128"/>
</g>
<defs>
<clipPath id="clip0_32_3619">
<rect width="89" height="89" fill="white"/>
</clipPath>
</defs>
</svg>
