<svg width="89" height="89" viewBox="0 0 89 89" fill="none" xmlns="http://www.w3.org/2000/svg">
<g clip-path="url(#clip0_32_3612)">
<path d="M42.3444 0.608414C41.7708 0.834396 41.0059 1.32111 40.6235 1.68615C39.9977 2.29455 38.9374 4.13713 38.9374 4.64123C38.9374 4.76291 38.7462 4.8672 38.5028 4.8672C37.7206 4.8672 33.879 5.75373 32.0364 6.34474C28.4903 7.50939 24.9095 9.26506 21.8327 11.3336L20.4595 12.2723L19.5729 11.8203C18.8429 11.4553 18.4431 11.3858 17.2089 11.3858C15.9399 11.3858 15.5923 11.4553 14.7405 11.8725C12.8458 12.8111 11.8028 14.4104 11.6811 16.618C11.6116 17.8174 11.6638 18.1651 12.0462 19.0863L12.4634 20.1467L11.7333 21.1549C9.4909 24.2664 9.10848 25.3442 10.0124 26.0569C10.8641 26.7174 11.6811 26.4393 12.4286 25.2399C12.6893 24.7879 13.3151 23.8666 13.7845 23.2061L14.6536 21.9719L15.5401 22.2848C16.0268 22.4412 16.7395 22.5803 17.1393 22.5977C17.9216 22.5977 19.5034 22.1805 20.077 21.7981C20.4247 21.5721 20.529 21.6068 21.4503 22.2674C22.3542 22.9106 22.4411 23.0322 22.3194 23.4494C21.8327 25.2746 21.9544 26.7869 22.7018 28.1776C23.1538 28.9945 23.936 29.8289 24.5966 30.2113C24.8747 30.3504 24.8573 30.5416 24.527 32.6276C24.3184 33.8617 24.0751 35.8608 23.9534 37.0776C23.797 38.6594 23.6753 39.2852 23.5188 39.2852C23.0321 39.2852 21.6241 40.0848 20.9809 40.7279C20.5985 41.1104 20.1118 41.8231 19.8684 42.3445L19.4513 43.2832H15.2446H11.038L10.7077 42.4488C10.2905 41.4406 8.81298 39.9457 7.94383 39.6154C7.33544 39.4069 7.30067 39.3547 7.40497 38.7637C7.66571 37.2166 8.44794 34.1746 8.96942 32.6449C9.83856 30.1244 9.71688 29.3596 8.39579 29.0988C7.50926 28.925 7.03993 29.516 6.2577 31.8627C5.6493 33.6531 4.90184 36.7299 4.60634 38.6246C4.5368 39.094 4.41512 39.2852 4.20653 39.2852C3.65028 39.2852 2.17274 40.1195 1.52958 40.7801C0.451843 41.9274 0.0868037 42.8139 0.0346552 44.5348C-0.0174932 45.8559 0.0172724 46.1688 0.399694 46.9684C0.625671 47.4899 1.06024 48.1852 1.37313 48.5328C1.89462 49.1412 3.77196 50.2363 4.27606 50.2363C4.39774 50.2363 4.55419 50.5319 4.62372 50.8969C5.6493 56.9287 7.4745 61.7438 10.5686 66.5762C11.0901 67.3932 11.7507 68.3492 12.0288 68.6969L12.5329 69.3401L12.1505 70.0875C11.6116 71.1305 11.4899 73.1643 11.9071 74.3811C12.3591 75.7717 13.3499 76.8842 14.7231 77.5621C15.7313 78.0488 16.0616 78.1358 17.2089 78.1358C18.2518 78.1184 18.7212 78.0315 19.5034 77.6664L20.4942 77.2145L22.3716 78.4486C26.8563 81.4037 31.6018 83.3332 36.921 84.3414L38.9548 84.7412L39.1286 85.4192C39.3546 86.2535 40.1542 87.0879 40.7278 87.0879C40.9538 87.0879 41.371 86.9141 41.6317 86.7229C42.0315 86.3926 42.0837 86.2535 41.9968 85.6278C41.6143 82.6205 41.6839 82.325 42.8833 81.4037C43.4048 81.0039 43.6829 80.917 44.4999 80.917C45.3169 80.917 45.595 81.0039 46.1165 81.4037C46.4641 81.6645 46.8813 82.1164 47.0204 82.3945C47.5766 83.4549 47.1942 85.2106 46.2729 85.8363C44.9171 86.7576 44.6563 87.592 45.4559 88.3916C46.0122 88.9653 46.6727 88.9479 47.6809 88.3047C48.637 87.7137 49.4192 86.6881 49.7843 85.5582L50.0624 84.7412L52.1136 84.3414C57.4327 83.3332 62.4042 81.2994 66.8716 78.3096L68.5055 77.2145L69.4964 77.6664C70.2786 78.0315 70.7479 78.1184 71.7909 78.1358C72.9382 78.1358 73.2684 78.0488 74.2766 77.5621C75.6499 76.8842 76.6407 75.7717 77.0927 74.3811C77.5098 73.1643 77.3882 71.1305 76.8493 70.0875L76.4669 69.3401L76.971 68.6969C77.9792 67.4279 79.5263 64.8901 80.5866 62.752C82.4987 58.893 83.5938 55.5033 84.3761 50.8795C84.4456 50.5319 84.602 50.2363 84.7237 50.2363C85.2278 50.2363 87.1052 49.1412 87.6266 48.5328C87.9395 48.1852 88.3741 47.4899 88.6001 46.9684C89.1911 45.6994 89.1389 43.457 88.4784 42.1881C87.8005 40.8322 85.8536 39.3026 84.7932 39.2852C84.5846 39.2852 84.463 39.094 84.3934 38.6246C83.42 32.419 80.83 26.0569 77.3186 21.2418L76.5364 20.1467L76.9536 19.0863C77.336 18.1651 77.3882 17.8174 77.3186 16.618C77.197 14.4104 76.154 12.8111 74.2593 11.8725C73.4075 11.4553 73.0598 11.3858 71.7909 11.3858C70.5567 11.3858 70.1743 11.4553 69.4442 11.8203L68.5751 12.2549L66.5413 10.9338C61.9696 7.96135 56.4593 5.80588 51.4878 5.00627C50.7056 4.88459 50.0624 4.71076 50.0624 4.60646C50.0624 4.51955 49.8364 3.9633 49.5583 3.38966C48.272 0.677948 45.1257 -0.538849 42.3444 0.608414ZM46.0296 3.42443C48.3067 5.11057 47.2638 8.58713 44.4999 8.58713C41.4579 8.58713 40.6409 4.32834 43.4569 3.14631C44.1001 2.86818 45.4907 3.02463 46.0296 3.42443ZM34.105 9.6301C32.471 11.3684 30.4024 14.5321 29.0292 17.435L27.8993 19.8164H27.204C26.5608 19.8338 26.161 19.9381 24.753 20.5291C24.2489 20.7203 24.162 20.7029 23.2581 20.0772L22.302 19.3992L22.528 18.8256C22.8409 18.0781 22.8409 15.801 22.528 15.0361L22.2847 14.4451L23.7448 13.4717C25.6917 12.1854 28.7163 10.6035 30.7675 9.80392C32.3145 9.21291 34.835 8.37853 35.1827 8.36115C35.2696 8.34377 34.7829 8.9174 34.105 9.6301ZM56.3897 9.16076C59.1362 10.0647 62.9257 11.9072 65.2202 13.4369L66.7151 14.4451L66.4718 15.0361C66.1589 15.801 66.1589 18.0781 66.4718 18.843L66.7151 19.4166L65.6895 20.1119L64.6639 20.8072L63.7774 20.3727C63.2907 20.1293 62.4911 19.9033 61.987 19.8512L61.0831 19.7817L59.9532 17.4176C58.5973 14.5321 56.5288 11.3684 54.8948 9.6301C54.2169 8.9174 53.7302 8.34377 53.7997 8.34377C53.8692 8.34377 55.0339 8.70881 56.3897 9.16076ZM42.1184 10.8643L43.1093 11.3162V16.9656V22.5977L42.6399 22.7715C41.2319 23.2756 40.328 24.0404 39.5806 25.3615L39.0591 26.2828L38.3464 26.1785C37.9466 26.109 36.6429 25.8309 35.4434 25.5354L33.2358 25.0139L33.1315 24.2838C32.9751 23.3104 32.2276 22.0067 31.428 21.2766C31.063 20.9637 30.7675 20.5986 30.7675 20.477C30.7675 20.0598 32.8708 15.9922 33.9138 14.4277C35.1306 12.6026 37.512 10.0299 38.7288 9.21291L39.5284 8.69142L40.3106 9.54318C40.7973 10.0647 41.51 10.5862 42.1184 10.8643ZM51.9223 10.6731C54.1473 12.7938 56.1464 15.7141 57.6239 19.0168L58.2845 20.4944L57.3284 21.5373C56.3897 22.5455 55.7987 23.7276 55.7987 24.6141C55.7987 24.9617 55.6075 25.0486 53.5911 25.5354C52.3569 25.8309 51.0532 26.109 50.6534 26.1785L49.9407 26.2828L49.4192 25.3615C48.6718 24.0404 47.7679 23.2756 46.3772 22.7715L45.8905 22.5977V16.983V11.351L47.0204 10.7947C47.7331 10.4297 48.3589 9.96037 48.7761 9.47365L49.4018 8.69142L49.9407 9.00432C50.2362 9.16076 51.1401 9.92561 51.9223 10.6731ZM18.7386 14.5494C20.4247 15.801 20.4247 18.2694 18.7386 19.2949C17.8694 19.8164 17.122 19.9033 16.2354 19.5557C14.3581 18.843 13.7845 16.2356 15.2272 14.9145C16.2354 14.0106 17.7999 13.8541 18.7386 14.5494ZM73.4596 14.6885C75.1979 16.027 74.8155 18.7735 72.7643 19.5557C70.9218 20.2684 69.0097 18.9473 69.0097 16.983C69.0097 15.7488 69.6702 14.7233 70.7479 14.2713C71.4954 13.9584 72.747 14.1496 73.4596 14.6885ZM70.2264 22.3195C71.4085 22.6672 72.3472 22.6672 73.4423 22.2848L74.3114 21.9893L74.8503 22.6846C77.0753 25.5527 79.3872 30.2461 80.5518 34.2963C80.969 35.7565 81.7513 39.3199 81.6643 39.3547C80.2563 39.8588 78.8136 41.1973 78.2747 42.501L77.9618 43.2832H77.0405C76.2409 43.2832 76.0323 43.3527 75.5977 43.7873C75.0067 44.3957 74.9546 44.9694 75.4587 45.6125C75.7716 46.0123 75.928 46.0645 76.9015 46.0645H77.9966L78.2052 46.7424C78.5007 47.768 79.5958 49.0369 80.6735 49.6106C81.195 49.8887 81.6296 50.132 81.647 50.1494C81.6643 50.1494 81.4905 51.1229 81.2472 52.3049C80.3606 56.7201 78.2921 61.6742 75.8063 65.3942C75.1284 66.4197 74.5026 67.2889 74.4157 67.341C74.3462 67.3932 73.8942 67.3063 73.4249 67.1672C72.2429 66.8022 70.3829 66.9238 69.3225 67.4627L68.4882 67.8625L67.7581 67.341L67.0106 66.8195L66.9063 65.4463C66.7673 63.3256 65.8634 61.709 64.4032 60.9094C63.8817 60.6313 63.7948 60.5096 63.8817 60.1619C64.1772 59.0147 64.8378 54.5647 65.029 52.5656L65.2376 50.3059L66.1241 49.993C67.254 49.5758 68.8358 48.0287 69.2704 46.8815C69.5659 46.0819 69.6007 46.0645 70.3307 46.0645C71.252 46.0645 71.7909 45.5778 71.7909 44.7434C71.7909 43.909 71.3042 43.4397 70.3481 43.3354C69.5659 43.2485 69.5138 43.2137 69.1139 42.3272C68.888 41.8231 68.4013 41.1104 68.0188 40.7279C67.3757 40.0848 65.9677 39.2852 65.4809 39.2852C65.3071 39.2852 65.1854 38.6942 65.0464 37.0602C64.9247 35.8434 64.6639 33.8444 64.4727 32.6276L64.1077 30.3852L64.5249 30.107C65.2376 29.6203 66.0024 28.7164 66.4196 27.8647C66.9237 26.8391 67.0628 24.7705 66.7151 23.7276L66.4718 23.0322L67.5147 22.3022C68.4708 21.6242 68.5925 21.5721 68.9227 21.7981C69.1313 21.9371 69.7223 22.1631 70.2264 22.3195ZM29.1509 23.0496C29.9157 23.6233 30.2981 24.2664 30.385 25.1703C30.6458 27.969 26.9954 29.377 25.3788 27.0998C24.3532 25.6744 24.753 23.9014 26.3175 22.9106C27.0128 22.476 28.4903 22.5629 29.1509 23.0496ZM62.8909 23.067C63.6731 23.658 64.1425 24.475 64.1425 25.3268C64.1425 28.1949 60.5616 29.3248 58.9972 26.9434C58.0585 25.5354 58.5973 23.7449 60.2313 22.7889C60.7528 22.4934 62.3347 22.6498 62.8909 23.067ZM45.7167 25.5875C46.777 26.1264 47.2811 26.926 47.2811 28.0733C47.2811 28.7164 47.1768 29.151 46.8813 29.5682C46.4641 30.2113 45.1952 30.9414 44.4999 30.9414C43.8046 30.9414 42.5356 30.2113 42.1184 29.5682C41.8229 29.151 41.7186 28.7164 41.7186 28.0733C41.7186 27.4301 41.8229 26.9955 42.1184 26.5783C42.5356 25.9352 43.8046 25.2051 44.4999 25.2051C44.7432 25.2051 45.2995 25.3789 45.7167 25.5875ZM34.5917 28.2297C35.4956 28.4557 36.8514 28.7338 37.5989 28.8555C38.3985 28.9945 38.9374 29.1684 38.9374 29.2901C38.9374 29.3944 39.1807 29.968 39.4763 30.559C40.0847 31.7932 41.2145 32.8709 42.3444 33.3055L43.1093 33.601V36.417V39.233L42.327 39.5285C41.1972 39.9631 39.9282 41.1799 39.4415 42.3272L39.0243 43.2832H34.7307H30.4372L30.0895 42.4836C29.5333 41.2494 28.7858 40.4324 27.6386 39.824C26.7868 39.3721 26.5956 39.1809 26.5956 38.8332C26.5956 37.7902 27.2214 33.01 27.5516 31.5151C27.6212 31.2369 27.8124 31.0979 28.2991 31.0283C30.02 30.7502 31.5671 29.7942 32.3319 28.5252C32.5753 28.1254 32.8013 27.8125 32.8534 27.8125C32.9056 27.8125 33.6878 28.0037 34.5917 28.2297ZM56.5809 28.4383C57.2241 29.6377 58.7364 30.6459 60.353 30.9414C60.8397 31.0457 61.2917 31.15 61.3265 31.2022C61.535 31.3934 62.4042 37.5643 62.4042 38.7985C62.4042 39.1809 62.2651 39.3373 61.622 39.6502C60.3704 40.276 59.6751 40.9713 59.0841 42.1533L58.5278 43.2832H54.2516H49.9755L49.6452 42.4488C49.1932 41.3711 47.7679 39.9457 46.7075 39.5459L45.8905 39.233V36.417V33.601L46.638 33.3055C48.0807 32.7492 49.4714 31.2022 49.9059 29.6725C50.0624 29.0815 50.0624 29.0815 51.8007 28.786C52.7567 28.6121 54.0257 28.334 54.6167 28.1602C56.1464 27.7256 56.1985 27.743 56.5809 28.4383ZM7.21376 42.4836C7.99598 43.0746 8.34364 43.7699 8.34364 44.6738C8.34364 46.8119 6.18817 48.2026 4.34559 47.2465C3.30262 46.7076 2.78114 45.908 2.78114 44.8129C2.78114 43.5613 3.44169 42.5358 4.51942 42.0838C5.2495 41.7709 6.51844 41.9621 7.21376 42.4836ZM26.2306 42.2402C27.4126 42.8313 28.0557 44.361 27.6559 45.5951C27.3604 46.4469 26.2827 47.3856 25.4136 47.542C24.527 47.6811 23.3972 47.2291 22.7366 46.4295C21.6415 45.1432 22.0761 43.1094 23.6231 42.2924C24.5618 41.8057 25.3614 41.7883 26.2306 42.2402ZM46.0296 42.3619C47.6809 43.5787 47.6983 45.9428 46.0643 47.0553C44.3261 48.2547 41.9968 47.1944 41.7708 45.1258C41.7186 44.6912 41.7186 44.1524 41.7882 43.909C41.9272 43.318 42.7268 42.4141 43.37 42.136C44.0653 41.8057 45.4386 41.9274 46.0296 42.3619ZM65.3593 42.2924C67.48 43.4223 67.3061 46.3252 65.0638 47.316C64.0208 47.768 63.0995 47.6115 62.213 46.8119C61.1005 45.8037 60.9093 44.4826 61.7089 43.1789C62.4737 41.9621 64.0208 41.5797 65.3593 42.2924ZM84.9671 42.3619C86.8792 43.7699 86.5663 46.5512 84.4108 47.3682C83.4722 47.7332 82.7768 47.6289 81.8556 47.0379C80.4302 46.0992 80.2389 43.8395 81.4557 42.727C82.464 41.8231 84.0284 41.6666 84.9671 42.3619ZM19.7294 46.8815C20.1813 48.0461 21.7458 49.5758 22.9104 49.993C23.7274 50.2885 23.8143 50.3754 23.8143 50.8447C23.8143 51.8356 24.3532 56.0596 24.7704 58.2324L25.1702 60.4053L24.8052 60.666C22.9973 61.9176 22.0761 63.5342 22.0239 65.5506L21.9891 66.7848L21.2417 67.3237L20.5116 67.8625L19.6772 67.4627C18.6169 66.9238 16.7569 66.8022 15.5749 67.1672C15.1056 67.3063 14.6536 67.3932 14.5841 67.341C14.4972 67.2889 13.8714 66.4197 13.1934 65.3942C10.6729 61.6395 8.65653 56.7549 7.73524 52.2875C7.50926 51.1229 7.33544 50.1494 7.35282 50.1494C7.3702 50.132 7.80477 49.8887 8.32626 49.6106C9.40399 49.0369 10.4991 47.768 10.7946 46.7424L11.0032 46.0645H15.2099H19.4165L19.7294 46.8815ZM39.1112 46.36C39.1112 46.8467 40.0847 48.4111 40.7104 48.9326C41.0233 49.2108 41.7013 49.6106 42.2054 49.8365L43.1093 50.2537V53.0697V55.8858L42.1532 56.3029C40.9364 56.8244 39.6327 58.2151 39.1807 59.4666L38.8505 60.3879L37.1991 60.6834C36.2952 60.8399 34.7481 61.1875 33.7747 61.4483L31.9843 61.9176L31.4454 61.4656C30.7327 60.8572 30.02 60.4922 28.8554 60.1445L27.8993 59.8664L27.6038 58.302C27.2561 56.4768 26.5956 51.5053 26.5956 50.6883C26.5956 50.2016 26.6825 50.0973 27.2388 49.9061C28.16 49.5758 29.7593 47.907 30.1591 46.8815L30.472 46.0645H34.7829C38.7809 46.0645 39.1112 46.0819 39.1112 46.36ZM58.9102 47.0205C59.3622 48.0983 60.805 49.5584 61.7958 49.9061C62.3173 50.0973 62.4042 50.2016 62.4042 50.6883C62.4042 51.5053 61.7436 56.4768 61.396 58.3194L61.1005 59.8838L60.3182 60.075C59.1188 60.3705 58.354 60.7529 57.6587 61.3613L57.0155 61.9176L55.2425 61.4483C54.2516 61.1875 52.7046 60.8399 51.8007 60.6834L50.1493 60.3879L49.819 59.4666C49.3671 58.2151 48.0634 56.8244 46.8466 56.3029L45.8905 55.8858V53.0697V50.2537L46.8118 49.8365C47.2985 49.6106 47.9764 49.2108 48.2893 48.9326C48.9151 48.4111 49.8886 46.8467 49.8886 46.36C49.8886 46.0819 50.2188 46.0645 54.1995 46.0645H58.5104L58.9102 47.0205ZM45.9079 58.9799C46.9161 59.6578 47.3159 60.4227 47.2464 61.5526C47.1595 62.6998 46.6901 63.4473 45.7688 63.8819C44.5173 64.4729 42.9528 64.1078 42.2054 63.0475C41.6143 62.2305 41.5622 60.7529 42.1011 59.9707C42.7268 59.0494 43.5438 58.5801 44.4999 58.5801C45.0561 58.5801 45.5081 58.7018 45.9079 58.9799ZM28.7858 63.0822C31.1151 64.1426 30.8718 67.5844 28.386 68.3145C27.3431 68.6274 26.4739 68.4188 25.7091 67.6365C24.2489 66.1764 24.5792 64.0904 26.4218 63.1344C27.3431 62.6651 27.8472 62.6651 28.7858 63.0822ZM62.5085 63.0822C63.5862 63.569 64.0555 64.3512 64.0555 65.6201C64.0555 66.8717 63.621 67.6192 62.5259 68.158C60.7354 69.0793 58.5452 67.6887 58.5452 65.6201C58.5452 64.4033 59.1362 63.5342 60.3182 63.0301C61.1179 62.6824 61.6567 62.6998 62.5085 63.0822ZM39.4415 63.8645C39.9977 65.1334 41.9098 66.75 42.8485 66.75C43.0745 66.75 43.1093 67.4279 43.1093 72.469V78.1705L42.2923 78.4834C41.7534 78.692 41.0929 79.1613 40.4671 79.8045L39.4936 80.8127L38.3811 79.9783C36.2952 78.3965 34.3657 76.0151 32.61 72.834C31.1325 70.1744 31.1325 70.1918 31.88 69.3401C32.7143 68.3492 33.2011 67.0108 33.2011 65.6201V64.5076L34.2093 64.2121C34.7481 64.0557 36.0692 63.7428 37.1122 63.5168C38.1725 63.3082 39.0417 63.117 39.0591 63.117C39.0765 63.0996 39.2503 63.4473 39.4415 63.8645ZM53.1913 63.7949C53.6259 63.8992 54.3733 64.1078 54.8774 64.2469L55.7813 64.5076V65.7244C55.7813 67.1324 56.3376 68.5578 57.2241 69.4791C57.7282 70.0006 57.7456 70.0701 57.537 70.609C57.1546 71.5651 55.5206 74.4158 54.5993 75.7195C53.452 77.3709 51.9571 78.9701 50.6186 79.9783L49.5409 80.7953L48.5327 79.8045C47.9243 79.1787 47.229 78.692 46.7249 78.4834L45.8905 78.1705V72.469C45.8905 67.4279 45.9253 66.75 46.1513 66.75C47.0899 66.75 49.002 65.1334 49.5583 63.8819L49.8886 63.1344L51.1401 63.3778C51.8354 63.4994 52.7567 63.6906 53.1913 63.7949ZM23.9534 69.8963C24.8747 70.7133 25.9872 71.1479 27.4126 71.2348L28.6641 71.3217L29.2552 72.5559C30.5241 75.2154 32.5405 78.2227 34.4005 80.1869C34.922 80.7432 35.2348 81.1604 35.0958 81.1082C34.9567 81.0735 33.9485 80.7432 32.8534 80.3955C30.3503 79.5959 26.161 77.5795 23.9882 76.1194L22.3194 75.0069L22.5454 74.3985C22.8235 73.5988 22.8235 71.3217 22.528 70.6611C22.3194 70.1744 22.3368 70.1049 22.754 69.7572C22.9973 69.5487 23.2407 69.3748 23.2755 69.3574C23.3102 69.3574 23.6057 69.6008 23.9534 69.8963ZM66.211 69.7225C66.6977 70.0875 66.7151 70.1049 66.4718 70.6785C66.1763 71.3912 66.1763 73.5641 66.4544 74.3985L66.6804 75.0069L65.0116 76.1194C62.8388 77.5795 58.6495 79.5959 56.1464 80.3955C55.0513 80.7432 54.043 81.0735 53.904 81.1082C53.7649 81.1604 54.0778 80.7432 54.5993 80.1869C56.4419 78.2401 58.3192 75.4588 59.7272 72.608L60.3704 71.3217L61.6741 71.2174C63.0821 71.1131 64.4727 70.5569 65.1854 69.792C65.4114 69.5487 65.62 69.3574 65.6548 69.3574C65.6895 69.3574 65.9503 69.5313 66.211 69.7225ZM18.7386 70.1744C20.0423 71.1479 20.4073 72.8514 19.5556 74.1029C17.9737 76.4149 14.4276 75.3024 14.4276 72.4863C14.4276 71.3738 15.1229 70.3309 16.1659 69.8963C16.8091 69.6182 18.1997 69.7746 18.7386 70.1744ZM73.3206 70.1744C75.0067 71.4086 74.9893 73.7727 73.3206 74.8852C71.478 76.102 69.0097 74.7983 69.0097 72.608C69.0097 71.3738 69.6702 70.3483 70.7479 69.8963C71.3911 69.6182 72.7817 69.7746 73.3206 70.1744Z" fill="#BBE128"/>
</g>
<defs>
<clipPath id="clip0_32_3612">
<rect width="89" height="89" fill="white"/>
</clipPath>
</defs>
</svg>
