<svg width="29" height="30" viewBox="0 0 29 30" fill="none" xmlns="http://www.w3.org/2000/svg">
<path d="M5.12636 0.081974C4.93944 0.12299 4.72987 0.187443 4.6619 0.222599C4.458 0.339787 4.24276 0.67963 4.20878 0.931583C4.13515 1.48822 4.12948 1.47651 5.84003 3.25776C7.18241 4.65229 7.4203 4.92768 7.4203 5.0683C7.4203 5.21479 7.23339 5.43158 6.24218 6.45697C5.2453 7.48822 5.0414 7.67572 4.89979 7.67572C4.75819 7.67572 4.50897 7.44135 3.20058 6.09955C2.36229 5.23236 1.59198 4.48236 1.49003 4.42963C1.23515 4.30072 0.917959 4.31244 0.623427 4.46479C0.294912 4.64057 0.170302 4.83393 0.0796774 5.3144C-0.0222757 5.85932 -0.0222757 7.14252 0.0853415 7.71674C0.374209 9.29291 1.24647 10.746 2.4869 11.7246C3.00233 12.1288 3.99921 12.6269 4.67323 12.8144C5.19433 12.9609 5.3246 12.9726 6.28749 12.9726C7.26737 12.9726 7.37499 12.9609 7.90175 12.8027C8.21327 12.7148 8.53046 12.6386 8.60409 12.6386C8.70038 12.6445 8.97792 12.8906 9.57831 13.5117L10.4166 14.373L10.1787 14.5371C9.85019 14.7538 0.260927 24.7089 0.136318 24.9609C-0.0109476 25.2538 -0.0109476 26.0156 0.136318 26.3378C0.283584 26.6542 3.23456 29.707 3.54042 29.8593C3.85194 30.0117 4.58827 30.0117 4.87147 29.8593C5.12069 29.7246 14.7383 19.8046 14.9592 19.4531L15.1234 19.1953L20.1248 24.3574C23.1834 27.5156 25.2168 29.5781 25.3754 29.666C26.4685 30.3105 27.8959 29.9824 28.6039 28.916C29.0457 28.2538 29.1307 27.1933 28.8021 26.4257C28.6492 26.0624 28.3603 25.7519 23.1437 20.3437L17.6439 14.6484L21.4955 10.664L25.3471 6.67963L26.0834 6.53315C26.4912 6.45111 26.899 6.34565 26.9953 6.30463C27.1539 6.22846 27.2558 6.02338 28.0828 4.13666C28.5869 2.99408 29.0004 2.01557 29.0004 1.96283C29.0004 1.76947 28.8191 1.5351 28.1394 0.843693C27.4484 0.134708 27.2785 -5.72205e-05 27.1029 -5.72205e-05C27.0519 -5.72205e-05 26.106 0.427677 25.0016 0.949162C23.1777 1.80463 22.9795 1.9101 22.9058 2.07416C22.8662 2.17377 22.7642 2.59565 22.6849 3.01752L22.5433 3.77924L18.6918 7.76361L14.8402 11.748L13.5601 10.4296C12.8578 9.70307 12.2574 9.05268 12.2348 8.98236C12.1951 8.88861 12.2234 8.71283 12.3197 8.38471C12.6312 7.30072 12.6539 5.93549 12.382 4.83393C11.776 2.43158 9.83319 0.556583 7.45995 0.0878334C6.92186 -0.0176353 5.61913 -0.0234947 5.12636 0.081974ZM7.67519 1.22455C9.13085 1.67572 10.258 2.6308 10.9603 4.0019C11.3342 4.72846 11.5041 5.39057 11.5381 6.26947C11.5664 7.01947 11.5041 7.49408 11.2435 8.43744C11.1473 8.78901 11.1699 9.14057 11.3058 9.49213C11.3568 9.61518 11.9176 10.2421 12.7445 11.1035L14.1039 12.5097L13.175 13.4706L12.2461 14.4316L11.9969 14.332C11.8156 14.2558 11.4418 13.9101 10.5355 12.9843C9.22714 11.6425 9.14784 11.5839 8.58144 11.5781C8.42284 11.5722 8.04901 11.6484 7.73183 11.748C7.20507 11.9121 7.10878 11.9238 6.25917 11.9179C5.43788 11.9179 5.30761 11.9003 4.85448 11.7597C4.32206 11.5898 3.69335 11.2851 3.2912 10.998C2.90604 10.7226 2.27733 10.0898 2.00546 9.69135C1.69394 9.24018 1.29179 8.35541 1.16151 7.85151C1.0539 7.40619 0.985927 6.25776 1.04823 5.77143L1.08788 5.43744L2.59452 6.98432C4.24276 8.67768 4.3164 8.73041 4.95077 8.73041C5.47753 8.73041 5.69276 8.56635 7.00683 7.20111C8.3039 5.8476 8.43417 5.65424 8.43983 5.12104C8.43983 4.46479 8.38886 4.38861 6.75194 2.68354C5.01874 0.878849 5.05272 1.05463 6.42909 1.08393C7.09179 1.09565 7.36366 1.12494 7.67519 1.22455ZM27.8449 2.10346C27.8336 2.12104 27.5107 2.8476 27.1312 3.72065C26.7517 4.58783 26.4232 5.32026 26.4006 5.34955C26.3779 5.37299 26.0154 5.46088 25.5963 5.54291L24.8373 5.70111L19.598 11.1093L14.3588 16.5234L13.6904 15.8378L13.0277 15.1464L18.2613 9.72651L23.4949 4.30658L23.6195 3.60346C23.6932 3.21674 23.7668 2.8476 23.7894 2.78901C23.8178 2.70697 24.3049 2.44916 25.4094 1.92768L26.9896 1.18354L27.4258 1.62885C27.6637 1.86908 27.8506 2.08588 27.8449 2.10346ZM11.64 15.3456C11.7816 15.416 12.2914 15.9023 13.0334 16.6757C14.0926 17.789 14.2058 17.9238 14.2455 18.1464C14.3248 18.6621 14.3758 18.6035 11.0793 22.0195L8.01503 25.1953L6.3328 23.455L4.64491 21.7089L7.65819 18.5859C9.69159 16.4824 10.7508 15.4218 10.9037 15.3456C11.1869 15.2109 11.3568 15.2109 11.64 15.3456ZM27.8506 26.8359C27.9752 27.1113 28.0092 27.5976 27.9242 27.9199C27.8392 28.2421 27.5334 28.6171 27.2219 28.7871C26.8764 28.9746 26.2816 28.9687 25.9588 28.7695C25.8285 28.6874 23.359 26.1855 20.4703 23.2031C16.5848 19.1894 15.2027 17.7246 15.1404 17.5605L15.0498 17.332L15.9787 16.371L16.9076 15.4101L22.3281 21.0175C25.4943 24.2929 27.7939 26.7187 27.8506 26.8359ZM5.6078 24.2285L7.2787 25.957L6.72362 26.5253L6.17421 27.0996L4.49198 25.3593L2.80409 23.6132L3.34218 23.0566C3.63671 22.7519 3.89159 22.4999 3.90858 22.4999C3.92558 22.4999 4.69022 23.2792 5.6078 24.2285ZM4.91112 28.4062C4.45233 28.8691 4.35038 28.9453 4.18612 28.9453C4.0162 28.9453 3.86327 28.8105 2.50956 27.4042C1.15585 26.0038 1.01991 25.8456 1.01991 25.6699C1.01991 25.4999 1.09354 25.3945 1.54101 24.9199L2.0621 24.3691L3.74999 26.1152L5.43788 27.8613L4.91112 28.4062Z" fill="#11488B"/>
</svg>
