<svg width="313" height="62" viewBox="0 0 313 62" fill="none" xmlns="http://www.w3.org/2000/svg">
<g clip-path="url(#clip0_32_3393)">
<path d="M90.1179 61.6377H84.3809V59.6865H86.1563V49.1047H84.3809V47.1534H90.1179V49.1047H88.3348V59.6865H90.1179V61.6377Z" fill="#BBE128"/>
<path d="M101.763 51.6926H99.8012V49.1047H97.5141V59.6865H99.2972V61.6377H93.5499V59.6865H95.3356V49.1047H92.9374V51.6926H90.9785V47.1534H101.763V51.6926Z" fill="#BBE128"/>
<path d="M120.733 60.3644L119.235 61.9327L116.332 59.2361C116.181 59.5541 115.986 59.8494 115.754 60.1134C115.348 60.6106 114.859 61.0335 114.309 61.3633C113.445 61.8766 112.435 62.0887 111.438 61.9665C110.441 61.8443 109.512 61.3947 108.797 60.6879C108.365 60.2809 108.023 59.7883 107.792 59.2417C107.561 58.695 107.447 58.1061 107.456 57.5126C107.468 56.5955 107.766 55.7052 108.308 54.9662C108.747 54.3005 109.356 53.7645 110.071 53.4134C109.63 53.1023 109.267 52.6941 109.009 52.2204C108.743 51.7179 108.607 51.1562 108.616 50.5875C108.614 50.0934 108.715 49.6044 108.913 49.1517C109.11 48.699 109.4 48.2925 109.763 47.9582C110.101 47.6069 110.506 47.327 110.954 47.1349C111.402 46.9429 111.884 46.8427 112.371 46.8403C112.837 46.8354 113.299 46.9287 113.727 47.1142C114.155 47.2996 114.539 47.5731 114.854 47.9168C115.189 48.2541 115.452 48.655 115.63 49.0959C115.808 49.5367 115.895 50.0087 115.888 50.484C115.887 51.3729 115.559 52.2304 114.968 52.8933C114.635 53.3236 114.208 53.6723 113.72 53.9129L115.635 55.6752L117.092 52.3654H120.475V54.3166H118.56L117.351 57.1917L120.733 60.3644ZM114.658 57.7895L111.608 55.005C111.127 55.1613 110.703 55.4588 110.391 55.859C109.931 56.3162 109.66 56.9311 109.634 57.5799C109.635 57.8471 109.69 58.1113 109.797 58.3563C109.927 58.6368 110.109 58.8899 110.334 59.1016C110.558 59.329 110.821 59.5148 111.11 59.6502C111.361 59.767 111.634 59.8287 111.911 59.8313C112.555 59.8313 113.191 59.5355 113.818 58.9437C114.342 58.4658 114.622 58.0811 114.658 57.7895ZM113.761 50.6082C113.774 50.1909 113.627 49.7844 113.35 49.4721C113.221 49.3256 113.062 49.2091 112.884 49.1308C112.705 49.0526 112.511 49.0145 112.317 49.0192C112.115 49.014 111.915 49.0502 111.729 49.1254C111.542 49.2006 111.373 49.3133 111.231 49.4566C111.085 49.6048 110.971 49.7814 110.896 49.9755C110.821 50.1695 110.786 50.3769 110.794 50.5849C110.794 50.9662 110.999 51.3828 111.407 51.8348C111.735 52.2023 111.965 52.399 112.097 52.4275C112.229 52.4559 112.513 52.2489 112.95 51.8918C113.491 51.457 113.761 51.0292 113.761 50.6082Z" fill="#BBE128"/>
<path d="M144.886 61.6377H139.16V59.6865H140.935V50.3986L136.152 61.6377H134.823L129.942 50.4116V59.6865H131.727V61.6377H125.99V59.6865H127.763V49.1047H125.99V47.1534H131.2L135.58 57.7093L139.775 47.1612H144.886V49.1125H143.114V59.6942H144.886V61.6377Z" fill="#BBE128"/>
<path d="M156.923 57.0442H147.56C147.734 57.8028 148.136 58.49 148.71 59.0136C149.376 59.6404 150.259 59.9837 151.173 59.9711C151.991 59.9805 152.789 59.7164 153.44 59.2206C153.842 58.92 154.184 58.546 154.448 58.1182H156.691C156.272 59.2805 155.484 60.2732 154.448 60.9441C153.471 61.5916 152.324 61.9322 151.153 61.9224C150.395 61.9291 149.644 61.785 148.942 61.4985C148.241 61.2119 147.604 60.7886 147.067 60.2532C146.512 59.7463 146.07 59.1276 145.77 58.4376C145.47 57.7477 145.32 57.0021 145.328 56.2498C145.305 55.4692 145.439 54.692 145.723 53.9645C146.007 53.2371 146.434 52.5744 146.979 52.016C148.089 50.9314 149.578 50.3226 151.129 50.3187C152.68 50.3149 154.172 50.9163 155.287 51.9953C155.84 52.5256 156.276 53.1648 156.569 53.8726C156.863 54.5804 157.006 55.3413 156.99 56.1074C156.989 56.4209 156.967 56.7338 156.923 57.0442ZM154.597 54.873C154.353 54.1276 153.873 53.482 153.23 53.033C152.642 52.6351 151.945 52.4273 151.235 52.4378C150.312 52.4086 149.413 52.7314 148.718 53.341C148.255 53.7574 147.905 54.2844 147.7 54.873H154.597Z" fill="#BBE128"/>
<path d="M171.181 61.6377H167.227V60.6724C166.218 61.5737 164.895 62.0389 163.545 61.9664C162.791 61.978 162.044 61.8329 161.349 61.5402C160.655 61.2476 160.029 60.8137 159.511 60.2661C158.439 59.1498 157.842 57.6603 157.847 56.1118C157.851 54.5633 158.456 53.0771 159.534 51.9669C160.328 51.2322 161.308 50.7285 162.367 50.5101C163.426 50.2917 164.525 50.3668 165.545 50.7273C166.159 50.9658 166.728 51.3071 167.227 51.7365V49.1047H165.498V47.1534H169.406V59.6865H171.181V61.6377ZM167.227 56.2757C167.244 55.3092 166.885 54.3741 166.227 53.6671C165.918 53.3053 165.533 53.0157 165.1 52.8185C164.667 52.6214 164.196 52.5215 163.72 52.5258C163.229 52.5191 162.741 52.6101 162.285 52.7936C161.829 52.977 161.414 53.2493 161.064 53.5946C160.706 53.9227 160.422 54.3229 160.229 54.769C160.037 55.215 159.941 55.6967 159.947 56.1825C159.939 56.6884 160.031 57.1909 160.218 57.6606C160.406 58.1303 160.686 58.5578 161.041 58.9179C161.383 59.2804 161.796 59.5674 162.256 59.7603C162.715 59.9533 163.21 60.048 163.707 60.0384C164.182 60.0481 164.654 59.9535 165.088 59.7613C165.522 59.569 165.909 59.2838 166.222 58.9256C166.883 58.2037 167.243 57.2553 167.227 56.2757Z" fill="#BBE128"/>
<path d="M177.745 61.6377H172.008V59.6864H173.781V52.5931H172.008V50.6418H175.962V59.6864H177.745V61.6377ZM175.962 49.4281H173.781V47.1456H175.962V49.4281Z" fill="#BBE128"/>
<path d="M191.377 61.6376H187.402V60.6387C186.904 61.0818 186.331 61.4324 185.71 61.6739C185.071 61.8917 184.399 61.9959 183.725 61.9818C182.993 61.9918 182.267 61.8493 181.593 61.5633C180.919 61.2772 180.312 60.854 179.81 60.3204C179.285 59.7999 178.87 59.1786 178.591 58.4938C178.312 57.809 178.173 57.0748 178.184 56.3351C178.176 55.5624 178.322 54.796 178.614 54.0806C178.905 53.3651 179.337 52.7152 179.882 52.1686C180.395 51.6079 181.019 51.1611 181.715 50.8571C182.41 50.5531 183.162 50.3986 183.921 50.4037C184.578 50.3967 185.23 50.5235 185.836 50.7764C186.414 51.0348 186.946 51.3843 187.413 51.8115V50.6392H191.377V52.5905H189.591V59.6838H191.377V61.6376ZM187.534 56.2859C187.548 55.3173 187.191 54.38 186.537 53.667C186.229 53.3053 185.846 53.0157 185.415 52.8185C184.984 52.6213 184.514 52.5213 184.04 52.5258C183.551 52.521 183.066 52.613 182.612 52.7964C182.158 52.9798 181.745 53.251 181.396 53.5946C181.038 53.9221 180.752 54.3221 180.559 54.7681C180.365 55.2142 180.269 55.6962 180.275 56.1824C180.267 56.6876 180.359 57.1894 180.548 57.6582C180.736 58.1271 181.016 58.5535 181.371 58.9126C181.709 59.279 182.121 59.5698 182.579 59.766C183.037 59.9622 183.531 60.0594 184.03 60.0513C184.503 60.0608 184.972 59.9661 185.404 59.7738C185.837 59.5815 186.221 59.2963 186.531 58.9385C187.194 58.2165 187.553 57.2664 187.534 56.2859Z" fill="#BBE128"/>
<path d="M206.275 55.947C206.468 56.4352 206.566 56.9564 206.562 57.4816C206.568 58.0581 206.459 58.6299 206.24 59.1633C206.022 59.6967 205.699 60.1809 205.29 60.5871C204.853 61.0437 204.325 61.4035 203.741 61.6433C203.157 61.8831 202.528 61.9976 201.897 61.9793C201.362 62.0021 200.827 61.919 200.324 61.7347C199.821 61.5504 199.358 61.2686 198.964 60.9054V61.6403H196.992V57.4739H199.06C199.056 57.8177 199.135 58.1574 199.29 58.4644C199.445 58.7714 199.671 59.0369 199.949 59.2388C200.513 59.685 201.214 59.921 201.933 59.9065C202.564 59.9019 203.169 59.6555 203.623 59.2181C203.857 59.0234 204.046 58.7803 204.176 58.5056C204.307 58.2308 204.377 57.9309 204.381 57.6266C204.384 57.5757 204.384 57.5247 204.381 57.4739C204.378 57.4299 204.378 57.3858 204.381 57.3419C204.318 56.79 204.039 56.2857 203.605 55.9393C203.161 55.5796 202.448 55.3182 201.473 55.1629C200.71 55.0582 199.964 54.8538 199.253 54.5548C198.552 54.2276 197.975 53.6831 197.607 53.0021C197.44 52.7123 197.315 52.4004 197.235 52.0756C197.076 51.4493 197.064 50.7945 197.202 50.1631C197.339 49.5316 197.621 48.9408 198.026 48.4374C198.43 47.934 198.946 47.5318 199.533 47.2627C200.12 46.9936 200.761 46.8649 201.406 46.8869C201.853 46.8798 202.298 46.9534 202.719 47.1043C203.137 47.2685 203.528 47.4945 203.879 47.7746V47.1716H205.851V50.8101H203.768C203.69 50.2658 203.404 49.7727 202.972 49.4334C202.514 49.1052 201.961 48.9378 201.398 48.9572C200.851 48.9418 200.317 49.132 199.902 49.4903C199.707 49.6543 199.55 49.8601 199.445 50.0925C199.339 50.325 199.287 50.5781 199.292 50.8334C199.272 51.1313 199.326 51.4296 199.451 51.7009C199.576 51.9722 199.766 52.2078 200.005 52.3861C200.504 52.6929 201.06 52.8945 201.639 52.9788C202.977 53.241 203.961 53.555 204.59 53.9207C205.37 54.3786 205.966 55.0954 206.275 55.947Z" fill="#BBE128"/>
<path d="M218.886 56.0894C218.902 56.8478 218.766 57.6016 218.485 58.3063C218.205 59.0109 217.786 59.6518 217.253 60.1911C216.448 60.989 215.425 61.5316 214.314 61.7512C213.202 61.9708 212.051 61.8577 211.004 61.4259C209.956 60.9941 209.059 60.2629 208.424 59.3235C207.788 58.384 207.444 57.2781 207.433 56.1437C207.428 55.0085 207.759 53.8974 208.386 52.9513C209.012 52.0052 209.906 51.2668 210.952 50.8299C211.998 50.3929 213.151 50.277 214.263 50.497C215.375 50.7169 216.397 51.2628 217.199 52.0652C217.741 52.5835 218.172 53.2084 218.462 53.9009C218.752 54.5933 218.897 55.3384 218.886 56.0894ZM216.819 56.0894C216.824 55.6092 216.729 55.1332 216.54 54.6917C216.351 54.2502 216.073 53.8528 215.723 53.5248C215.386 53.1811 214.984 52.9088 214.54 52.7243C214.096 52.5397 213.619 52.4467 213.139 52.4508C212.655 52.4362 212.173 52.523 211.724 52.7058C211.276 52.8885 210.87 53.163 210.534 53.5119C210.194 53.8587 209.927 54.2705 209.75 54.7226C209.572 55.1747 209.487 55.658 209.5 56.1437C209.494 56.6382 209.586 57.1291 209.771 57.5876C209.956 58.0462 210.23 58.4632 210.578 58.8144C210.912 59.1674 211.314 59.4486 211.76 59.6407C212.206 59.8329 212.687 59.932 213.172 59.932C213.658 59.932 214.138 59.8329 214.585 59.6407C215.031 59.4486 215.433 59.1674 215.767 58.8144C216.464 58.0813 216.842 57.1013 216.819 56.0894Z" fill="#BBE128"/>
<path d="M224.998 61.6377H219.248V59.6865H221.034V49.1047H219.248V47.1534H223.212V59.6865H224.998V61.6377Z" fill="#BBE128"/>
<path d="M238.185 61.6377H234.234V60.7371C233.877 61.0752 233.47 61.3563 233.027 61.5704C232.526 61.8045 231.98 61.9247 231.427 61.9223C230.049 61.9223 228.934 61.5066 228.083 60.675C227.184 59.7899 226.734 58.5823 226.734 57.052V52.5931H224.959V50.6418H228.913V56.8682C228.913 57.9034 229.151 58.6797 229.626 59.1973C230.15 59.6812 230.84 59.9444 231.553 59.9324C232.265 59.9203 232.946 59.6339 233.453 59.1326C233.97 58.5547 234.229 57.7412 234.229 56.6923V52.5931H232.433V50.6418H236.407V59.6864H238.18L238.185 61.6377Z" fill="#BBE128"/>
<path d="M243.971 61.6377H240.007V52.5802H238.234V50.6289H240.007V47.1534H242.186V50.6419H243.971V52.5931H242.186V59.6865H243.971V61.6377Z" fill="#BBE128"/>
<path d="M250.544 61.6377H244.807V59.6864H246.582V52.5931H244.807V50.6418H248.761V59.6864H250.544V61.6377ZM248.761 49.4281H246.582V47.1456H248.761V49.4281Z" fill="#BBE128"/>
<path d="M262.459 56.0893C262.475 56.8474 262.339 57.601 262.059 58.3056C261.779 59.0101 261.36 59.6512 260.829 60.191C260.164 60.8628 259.343 61.3601 258.44 61.6387C257.538 61.9172 256.58 61.9686 255.653 61.7881C254.726 61.6077 253.857 61.201 253.124 60.6042C252.391 60.0073 251.817 59.2386 251.451 58.3663C251.086 57.4939 250.941 56.5448 251.029 55.603C251.117 54.6611 251.436 53.7556 251.958 52.9667C252.479 52.1777 253.186 51.5297 254.017 51.0799C254.849 50.6301 255.778 50.3926 256.722 50.3882C257.474 50.3795 258.219 50.5236 258.914 50.8118C259.608 51.1001 260.236 51.5264 260.761 52.0651C261.306 52.5824 261.738 53.207 262.03 53.8995C262.323 54.592 262.469 55.3375 262.459 56.0893ZM260.379 56.0893C260.384 55.6091 260.289 55.1331 260.1 54.6916C259.912 54.2501 259.633 53.8527 259.283 53.5247C258.947 53.1809 258.544 52.9087 258.1 52.7241C257.656 52.5396 257.18 52.4466 256.699 52.4507C256.215 52.4361 255.733 52.5229 255.285 52.7056C254.836 52.8884 254.43 53.1629 254.094 53.5117C253.754 53.8586 253.488 54.2704 253.31 54.7225C253.133 55.1746 253.048 55.6579 253.06 56.1436C253.054 56.6381 253.146 57.129 253.331 57.5875C253.516 58.046 253.79 58.4631 254.138 58.8143C254.472 59.1673 254.874 59.4485 255.32 59.6406C255.766 59.8328 256.247 59.9319 256.733 59.9319C257.218 59.9319 257.699 59.8328 258.145 59.6406C258.591 59.4485 258.993 59.1673 259.327 58.8143C259.673 58.4516 259.944 58.0243 260.124 57.5567C260.305 57.0891 260.391 56.5904 260.379 56.0893Z" fill="#BBE128"/>
<path d="M276.182 61.6377H270.435V59.6864H272.218V55.4087C272.218 54.3736 271.98 53.5972 271.507 53.0796C271.247 52.8345 270.941 52.6434 270.607 52.5175C270.273 52.3916 269.917 52.3334 269.56 52.3461C269.203 52.3589 268.852 52.4424 268.528 52.5918C268.203 52.7413 267.911 52.9537 267.67 53.2168C267.163 53.7999 266.905 54.5875 266.894 55.5795V59.6916H268.68V61.6429H262.933V59.6916H264.716V52.5931H262.933V50.6419H266.894V51.5502C267.254 51.211 267.665 50.9298 268.111 50.7169C268.611 50.4798 269.156 50.3561 269.709 50.3546C271.087 50.3546 272.2 50.7713 273.047 51.6046C273.938 52.4827 274.383 53.6904 274.383 55.2276V59.6787H276.169L276.182 61.6377Z" fill="#BBE128"/>
<path d="M284.963 58.7108C284.943 59.4499 284.66 60.1574 284.165 60.7061C283.465 61.5446 282.506 61.9647 281.286 61.9664C280.86 61.981 280.435 61.916 280.033 61.7749C279.618 61.5789 279.241 61.3098 278.921 60.9804V61.6481H277.032V58.1079H279.1C279.086 58.3775 279.131 58.6469 279.233 58.8969C279.335 59.1469 279.491 59.3714 279.689 59.5545C280.104 59.8953 280.631 60.068 281.167 60.0384C281.767 60.0384 282.201 59.8831 282.493 59.5674C282.722 59.3086 282.843 58.9713 282.831 58.6254C282.831 58.0251 282.494 57.5722 281.818 57.2668C281.278 57.0708 280.723 56.9168 280.159 56.8062C279.084 56.5508 278.288 56.1299 277.771 55.5433C277.42 55.144 277.185 54.6549 277.094 54.1303C277.066 53.9621 277.05 53.8405 277.045 53.7629C277.04 53.6852 277.045 53.6257 277.045 53.5817C277.043 53.1643 277.124 52.7507 277.283 52.365C277.442 51.9793 277.677 51.6293 277.973 51.3354C278.291 50.9967 278.677 50.7293 279.105 50.5508C279.534 50.3724 279.995 50.287 280.459 50.3003C281.234 50.3131 281.974 50.6235 282.526 51.1672V50.6315H284.268V53.4911H282.201C282.182 53.2716 282.113 53.0594 281.999 52.8712C281.885 52.683 281.728 52.524 281.542 52.4068C281.214 52.2089 280.836 52.11 280.454 52.1222C280.083 52.1069 279.72 52.2368 279.443 52.4844C279.341 52.5658 279.257 52.6686 279.198 52.7857C279.139 52.9028 279.106 53.0314 279.102 53.1625C279.089 53.4366 279.155 53.7087 279.293 53.9461C279.43 54.1835 279.633 54.376 279.877 54.5004C280.407 54.7353 280.96 54.9157 281.526 55.0387C282.743 55.3837 283.62 55.8314 284.16 56.3818C284.699 56.9321 284.967 57.7085 284.963 58.7108Z" fill="#BBE128"/>
<path d="M313 37.2419H292.235V43.3364H313V37.2419Z" fill="#BBE128"/>
<path d="M198.12 29.6673C199.489 29.577 200.82 29.1789 202.015 28.5027C203.159 27.8179 204.161 26.9202 204.968 25.858C205.808 24.7812 206.458 23.5692 206.891 22.2738C207.336 20.9601 207.563 19.5824 207.563 18.1953C207.571 16.2961 207.174 14.417 206.4 12.6831C205.633 10.9301 204.469 9.38034 202.999 8.15697C201.521 6.85787 199.955 6.05132 198.301 5.73732C196.827 5.42613 195.326 5.26057 193.82 5.24304H176.012V11.2935H180.123V37.242H176.012V43.3364H190.646V37.242H187.38V26.2177L193.82 35.358L199.415 43.3364H208.32V37.242H204.028L198.12 29.6673ZM194.631 25.2679C194.364 25.3209 194.092 25.3521 193.82 25.3611C192.988 25.4659 192.151 25.5255 191.313 25.5396H187.38V11.7412H192.393C192.884 11.7412 193.378 11.7412 193.825 11.7852C194.306 11.7838 194.785 11.8297 195.257 11.9223C196.189 12.0521 197.062 12.4575 197.763 13.0869C198.592 13.6942 199.242 14.5152 199.642 15.4625C200.071 16.4045 200.289 17.4291 200.28 18.4644C200.28 19.5119 200.066 20.5483 199.652 21.5103C199.205 22.4798 198.529 23.3261 197.683 23.9766C196.8 24.6743 195.746 25.1229 194.631 25.2757V25.2679Z" fill="#92C4ED"/>
<path d="M262.744 18.9121C261.832 17.4038 260.534 16.1666 258.984 15.3279C257.537 14.5607 255.929 14.1458 254.291 14.1168C254.16 14.0805 254.024 14.0656 253.888 14.0728C251.871 14.063 249.874 14.4746 248.024 15.2813C244.477 16.9038 241.665 19.7983 240.142 23.3943C238.607 27.0921 238.591 31.2474 240.099 34.9568C240.855 36.7121 241.916 38.3197 243.231 39.7056C244.553 41.068 246.134 42.1505 247.882 42.8886C249.67 43.6862 251.611 44.0836 253.568 44.0532H254.291C255.851 43.9772 257.384 43.6122 258.811 42.9766C260.444 42.2333 261.816 41.0162 262.75 39.483V43.3363H272.952V37.2419H269.373V20.9384H272.952V14.8336H262.75L262.744 18.9121ZM262.207 32.312C261.772 33.357 261.15 34.3137 260.372 35.1354C259.573 35.9282 258.631 36.563 257.597 37.0064C256.551 37.4564 255.424 37.6855 254.286 37.6793H254.152C253.047 37.6999 251.951 37.4902 250.932 37.0634C249.905 36.6257 248.977 35.9849 248.203 35.1794C247.413 34.4188 246.787 33.5035 246.365 32.4906C245.912 31.4758 245.684 30.375 245.696 29.2635C245.689 28.0949 245.917 26.9368 246.365 25.8579C246.786 24.8152 247.392 23.8577 248.154 23.032C248.928 22.2266 249.857 21.5867 250.885 21.1506C251.955 20.6668 253.118 20.4256 254.291 20.4441C255.429 20.4366 256.557 20.6657 257.602 21.117C258.625 21.542 259.553 22.1666 260.333 22.9543C261.108 23.727 261.731 24.6393 262.168 25.6431C262.652 26.6804 262.897 27.8134 262.884 28.9582C262.888 30.1105 262.657 31.2516 262.207 32.312Z" fill="#92C4ED"/>
<path d="M234.37 18.599C232.973 17.1613 231.314 16.0052 229.483 15.1934C227.665 14.3971 225.704 13.9822 223.72 13.9745C221.687 13.9504 219.672 14.3634 217.812 15.1856C216.051 15.9632 214.455 17.0738 213.114 18.4567C211.763 19.8318 210.697 21.4617 209.979 23.252C209.244 25.1503 208.865 27.168 208.86 29.2041C208.884 33.157 210.463 36.9412 213.254 39.7367C214.616 41.0915 216.226 42.1713 217.996 42.9172C219.815 43.6578 221.761 44.0384 223.725 44.0377H223.859C225.318 44.0473 226.768 43.8201 228.154 43.3649C229.507 42.9458 230.789 42.3265 231.958 41.5275C233.148 40.7265 234.204 39.7442 235.091 38.6161C236.008 37.4875 236.761 36.2346 237.329 34.8948H230.516C229.794 36.0182 228.771 36.9151 227.563 37.4826C226.357 38.0423 225.044 38.3328 223.715 38.334H223.671C222.661 38.3426 221.659 38.16 220.717 37.7958C219.796 37.4774 218.934 37.0078 218.166 36.4061C217.421 35.7896 216.772 35.0647 216.241 34.2556C215.712 33.4 215.334 32.4599 215.122 31.4762H238.168L238.393 29.2351C238.406 27.284 238.088 25.345 237.453 23.5004C236.795 21.6607 235.742 19.9877 234.37 18.599ZM223.72 26.5308H215.083C215.277 25.6012 215.658 24.7208 216.202 23.9429C216.721 23.1247 217.371 22.3973 218.125 21.7898C218.87 21.1921 219.7 20.7089 220.588 20.3562C221.484 19.9978 222.442 19.815 223.407 19.8179H223.72C225.636 19.8583 227.495 20.484 229.046 21.6113C230.658 22.8424 231.821 24.5701 232.356 26.5282L223.72 26.5308Z" fill="#92C4ED"/>
<path d="M284.091 37.242V5.24304H273.888V11.2935H277.601V37.242H273.619V43.3364H287.76V37.242H284.091Z" fill="#92C4ED"/>
<path d="M94.876 11.2935H98.5017L92.147 23.9326L85.7458 11.2935H89.2811V5.24304H74.5586V11.2935H78.4065L88.4774 30.071V37.242H84.3581V43.3364H99.8869V37.242H95.7262V30.071L105.751 11.2935H109.555V5.24304H94.876V11.2935Z" fill="#11488B"/>
<path d="M139.002 23.1692C137.492 19.5997 134.673 16.7454 131.126 15.1934C129.311 14.3779 127.342 13.9622 125.352 13.9745H125.218C123.25 13.9714 121.302 14.3675 119.491 15.139C117.713 15.9196 116.091 17.0155 114.703 18.3739C113.349 19.7481 112.257 21.3582 111.48 23.1252C110.674 24.9727 110.262 26.9682 110.271 28.9841C110.267 30.9848 110.663 32.9661 111.434 34.812C112.938 38.4065 115.755 41.2912 119.31 42.8783C121.168 43.6544 123.161 44.0504 125.174 44.0429H125.218C127.216 44.0551 129.195 43.6588 131.035 42.8783C132.807 42.0948 134.417 40.9853 135.78 39.6073C137.124 38.2081 138.214 36.5855 139.002 34.812C139.769 32.9667 140.164 30.9879 140.164 28.9893C140.164 26.9907 139.769 25.0118 139.002 23.1666V23.1692ZM133.09 32.4027C132.653 33.4197 132.03 34.3464 131.255 35.1355C130.463 35.9287 129.519 36.5537 128.479 36.9728C127.449 37.4227 126.337 37.6519 125.213 37.6457H125.169C124.015 37.657 122.871 37.4278 121.809 36.9728C120.806 36.5018 119.899 35.848 119.135 35.0449C118.347 34.2573 117.737 33.3107 117.344 32.2681C116.9 31.2187 116.672 30.0902 116.674 28.9505C116.687 27.2567 117.199 25.6043 118.146 24.201C119.093 22.7976 120.433 21.7058 121.998 21.0627C123.014 20.6174 124.111 20.3883 125.221 20.3898H125.355C126.484 20.3766 127.602 20.6227 128.621 21.1092C129.656 21.5339 130.587 22.1754 131.353 22.9906C132.116 23.7983 132.722 24.7407 133.141 25.77C133.556 26.826 133.769 27.9504 133.769 29.085C133.773 30.226 133.542 31.3555 133.09 32.4027Z" fill="#11488B"/>
<path d="M169.075 37.2419V14.8336H158.916V20.928H162.586V30.1149C162.593 31.0746 162.534 32.0336 162.408 32.9849C162.303 33.9631 161.931 34.8935 161.332 35.6737C160.781 36.4047 160.058 36.9893 159.229 37.3765C158.402 37.8161 157.48 38.0446 156.544 38.0416C155.614 38.0317 154.697 37.8179 153.859 37.4153C153.013 37.0064 152.297 36.3703 151.791 35.5779C151.277 34.8107 150.941 33.938 150.807 33.0237C150.716 32.0817 150.672 31.1423 150.672 30.2909V14.8336H140.478V20.928H144.147V32.1775C144.147 33.6407 144.312 35.0993 144.641 36.5251C145.002 37.9627 145.691 39.2968 146.654 40.4224C147.616 41.5928 148.844 42.5149 150.236 43.1112C151.595 43.7402 153.077 44.0618 154.575 44.0532C156.23 44.0509 157.865 43.6833 159.363 42.9766C160.888 42.2886 162.191 41.1869 163.123 39.7961V43.3363H172.745V37.2419H169.075Z" fill="#11488B"/>
<path d="M43.6357 48.5354L67.4419 0H72.2305L48.3339 48.5354H43.6357Z" fill="#BBE128"/>
<path d="M42.8289 37.9587H36.1098V30.4746H42.8289V37.9587ZM28.7757 39.8531L0 26.7093V21.9968L28.7757 8.69519V13.6121L4.78863 24.3802L28.7757 34.9905V39.8531ZM42.8289 18.115H36.1098V10.5766H42.8289V18.115Z" fill="#BBE128"/>
</g>
<defs>
<clipPath id="clip0_32_3393">
<rect width="313" height="62" fill="white"/>
</clipPath>
</defs>
</svg>
