<svg width="28" height="30" viewBox="0 0 28 30" fill="none" xmlns="http://www.w3.org/2000/svg">
<g clip-path="url(#clip0_32_3015)">
<path d="M1.58599 0.10552C0.853176 0.398489 0.328177 0.966848 0.0930203 1.72271C-0.109323 2.35552 0.00552036 3.26958 0.350052 3.85552C0.809427 4.64068 1.75005 5.12115 2.59771 5.00982L2.87661 4.9688L3.48911 6.34576C3.82818 7.10162 4.10161 7.74615 4.10161 7.7813C4.10161 7.8106 3.95943 7.93365 3.7899 8.05669C3.38521 8.3438 2.6524 9.12896 2.36802 9.58013C1.7063 10.629 1.40552 11.6895 1.40552 12.9786C1.40005 14.2735 1.68443 15.2989 2.32974 16.3477C2.59224 16.7813 3.15005 17.42 3.59849 17.8126L3.83365 18.0176L3.4399 18.7793C3.22115 19.1954 3.04068 19.5469 3.03521 19.5586C3.02427 19.5704 2.87115 19.5469 2.69068 19.5176C1.78286 19.3594 0.83677 19.8165 0.344583 20.6485C-0.0983859 21.3926 -0.120261 22.4766 0.289895 23.2618C0.535989 23.7247 1.11568 24.2403 1.54771 24.3868C3.0188 24.8672 4.43521 23.9239 4.65943 22.3243C4.75786 21.6036 4.55552 20.8946 4.09615 20.3614L3.88286 20.1153L4.29849 19.3126C4.63208 18.6739 4.73599 18.5157 4.80708 18.5508C5.66021 18.9258 6.76489 19.1016 7.59614 18.9903C8.5313 18.8614 9.29146 18.5743 10.0024 18.0821C10.3305 17.8536 10.418 17.8184 10.4727 17.8829C10.5055 17.9239 10.9102 18.3985 11.3641 18.9376L12.1954 19.9161L12.0422 20.1094C11.1454 21.211 10.6696 22.7168 10.7297 24.252L10.7516 24.879L9.71255 25.1426L8.66802 25.4063L8.57505 25.2188C8.41646 24.9024 7.96802 24.4571 7.62349 24.2696C6.67193 23.754 5.57818 23.9415 4.85083 24.7442C3.94302 25.7403 3.97036 27.3458 4.90552 28.3067C5.42505 28.834 5.89536 29.0274 6.63364 28.9922C7.06568 28.9747 7.19146 28.9454 7.50864 28.7872C8.31255 28.377 8.73911 27.7149 8.88677 26.6485L8.91958 26.4376L9.77818 26.2208C10.2485 26.1036 10.7188 25.9805 10.8227 25.9571C10.9813 25.9102 11.0086 25.9219 11.0305 26.0215C11.0907 26.2501 11.4844 27.0704 11.7032 27.4161C12.5399 28.7461 13.9344 29.6836 15.4383 29.9415C16.1055 30.0586 17.2485 29.9883 17.8555 29.795C18.8399 29.4903 19.6657 28.9571 20.3493 28.2012C21.4266 27.0118 21.9352 25.6524 21.9352 23.9942C21.9352 23.0098 21.8258 22.4825 21.3446 21.2344C21.3282 21.1817 23.8875 19.336 23.9805 19.336C23.9969 19.336 24.1336 19.4239 24.2813 19.5352C25.6211 20.5196 27.3766 19.9161 27.8961 18.293C28.0274 17.877 28.0329 17.127 27.9071 16.7227C27.6665 15.961 27.0977 15.3516 26.3922 15.0997C25.8016 14.8829 24.9485 15.0059 24.4016 15.3751C23.6415 15.8907 23.1985 16.9278 23.3461 17.8477C23.379 18.0352 23.4118 18.2403 23.4172 18.3047C23.4282 18.3868 23.1274 18.627 22.0938 19.3418L20.7594 20.2793L20.4696 19.9278C20.136 19.5235 19.4251 18.9317 19.0094 18.709C18.8563 18.627 18.725 18.5567 18.7196 18.5508C18.7032 18.5391 20.9399 11.8829 20.9672 11.8477C20.9782 11.836 21.2079 11.8711 21.4704 11.9297C22.1102 12.0586 23.1438 12.0176 23.7672 11.8419C25.7579 11.2852 27.2016 9.79107 27.8196 7.63482C27.9563 7.15435 27.9672 7.04888 27.9672 6.00591C27.9672 4.95708 27.9563 4.86333 27.8141 4.36529C27.229 2.29107 25.8618 0.826223 23.9258 0.19927C23.4665 0.0469265 23.368 0.0352077 22.3946 0.0352077C21.4157 0.0352077 21.3282 0.0410671 20.8633 0.193411C19.961 0.492239 19.168 0.984426 18.4899 1.66411C18.1946 1.96294 17.6422 2.74224 17.4672 3.11724C17.3961 3.26958 17.3141 3.39849 17.2922 3.39849C17.2704 3.39849 16.9422 3.27544 16.5649 3.12896L15.8758 2.85943L15.8704 2.46685C15.8704 1.75786 15.6352 1.18365 15.1649 0.697317C14.6782 0.19927 14.2133 5.14984e-05 13.5352 5.14984e-05C11.7852 5.14984e-05 10.6751 1.89263 11.4188 3.59771C11.8454 4.57036 12.9719 5.19146 13.9344 4.98638C14.5141 4.86333 15.154 4.44146 15.4383 3.99029L15.5258 3.84966L16.2258 4.13091C16.6086 4.28325 16.9368 4.41802 16.9477 4.42974C16.9586 4.44146 16.9258 4.65825 16.8766 4.92193C16.7235 5.73052 16.7836 6.87896 17.0133 7.7813C17.0297 7.82818 16.1875 8.24419 14.5251 8.99419C13.1469 9.62115 12.004 10.1368 11.9821 10.1368C11.9657 10.1368 11.8454 9.95513 11.7196 9.73833C11.2493 8.91802 10.3797 8.08013 9.54302 7.63482C8.31255 6.97271 6.92896 6.80865 5.60552 7.17193C5.31021 7.25396 5.04771 7.30669 5.02583 7.2774C5.00396 7.25396 4.71958 6.627 4.38599 5.877L3.78443 4.52349L4.04146 4.23052C5.22271 2.88872 4.70864 0.714895 3.07349 0.11138C2.68521 -0.0292454 1.93599 -0.0351048 1.58599 0.10552ZM2.81646 1.13677C3.13365 1.2774 3.36333 1.50591 3.5274 1.82818C4.01411 2.78911 3.35786 3.94927 2.32427 3.94927C1.40552 3.94927 0.787551 3.02349 1.04458 2.0274C1.12115 1.74029 1.60786 1.20122 1.8649 1.12505C2.1438 1.03716 2.60318 1.04302 2.81646 1.13677ZM14.0821 1.16607C15.0719 1.65825 15.1649 3.14654 14.2407 3.72661C13.7211 4.05474 13.2016 4.0313 12.7368 3.66216C11.9055 3.01763 12.0477 1.6231 12.9883 1.16607C13.2782 1.01958 13.7922 1.02544 14.0821 1.16607ZM23.3407 1.14849C25.129 1.54107 26.5727 3.09966 26.9336 5.03325C27.0813 5.80669 27.0266 6.77935 26.8024 7.50005C26.6383 8.0274 26.3649 8.58404 26.0696 9.01177L25.9383 9.19927L25.7961 8.89458C25.5172 8.29693 24.9485 7.67583 24.4071 7.39458L24.1227 7.24224L24.2594 7.04888C25.1782 5.75982 24.7461 3.89654 23.368 3.21099C22.936 2.98833 22.2688 2.92388 21.8313 3.04693C20.6446 3.39263 19.9118 4.57036 20.0813 5.877C20.1305 6.27544 20.3274 6.77935 20.5407 7.04302L20.6774 7.22466L20.3602 7.4063C19.9391 7.64068 19.2118 8.42583 19.0368 8.83013C18.9602 9.00005 18.8836 9.14068 18.8563 9.14068C18.7852 9.14068 18.4844 8.67193 18.2602 8.19146C17.9594 7.55279 17.8227 6.99615 17.7899 6.23443C17.6751 3.80865 19.2172 1.66411 21.4485 1.14263C21.9243 1.0313 22.8321 1.03716 23.3407 1.14849ZM22.9415 4.18365C23.461 4.44732 23.7508 4.92193 23.7508 5.50786C23.7508 6.11138 23.4063 6.64458 22.8813 6.85552C22.5258 6.99615 22.3071 7.00201 21.979 6.88482C21.279 6.62701 20.9016 5.83013 21.1094 5.03325C21.186 4.73443 21.525 4.34185 21.8422 4.18365C22.2086 4.002 22.5805 4.002 22.9415 4.18365ZM7.82583 8.12115C9.59771 8.47857 11.0086 9.9024 11.4899 11.8067C11.5829 12.17 11.6102 12.4395 11.6102 13.0079C11.6102 14.1094 11.3969 14.8419 10.8172 15.7735L10.5329 16.2247L10.3688 15.8614C10.1555 15.3985 9.44458 14.6192 9.03989 14.4141C8.8813 14.3321 8.75552 14.2442 8.75005 14.2149C8.75005 14.1797 8.79927 14.1036 8.85396 14.0391C9.04536 13.8106 9.23677 13.3301 9.30239 12.9141C9.46099 11.9239 9.0563 10.9278 8.2688 10.3887C7.06568 9.56255 5.45786 10.0547 4.86177 11.4434C4.49536 12.293 4.59927 13.3008 5.12427 14.045L5.25552 14.2325L5.04771 14.3438C4.44615 14.6778 3.8938 15.2637 3.59302 15.8965L3.46177 16.1836L3.28677 15.9551C3.03521 15.6329 2.64693 14.754 2.51021 14.209C2.34068 13.5469 2.34068 12.4688 2.51021 11.8067C3.15552 9.24615 5.4688 7.64068 7.82583 8.12115ZM23.3079 8.09185C24.1008 8.26763 24.8883 9.06451 25.0688 9.86138C25.1016 10.0079 25.0743 10.0372 24.8008 10.2247C23.3954 11.1915 21.4922 11.1915 20.0102 10.2364C19.6711 10.0137 19.6602 9.95513 19.879 9.45123C20.1415 8.83599 20.7868 8.27349 21.4102 8.10943C21.7602 8.01568 22.9305 8.00982 23.3079 8.09185ZM17.6258 9.18169C18.1016 10.002 18.8508 10.7754 19.6165 11.2266C19.8243 11.3497 19.9938 11.4493 20.0047 11.461C20.0266 11.4786 17.8391 17.9942 17.7735 18.1055C17.7407 18.1641 17.6751 18.1641 17.4399 18.0997C17.2485 18.0469 16.8383 18.0176 16.2969 18.0176C15.5915 18.0176 15.3672 18.0411 14.9571 18.1524C14.4266 18.2989 13.5079 18.7501 13.1579 19.0313L12.9446 19.2012L12.0477 18.1465C11.2547 17.2208 11.1618 17.0801 11.2219 16.9922C11.2602 16.9395 11.4079 16.7227 11.5501 16.5235C11.8454 16.1016 12.1899 15.3809 12.3594 14.836C12.6493 13.8868 12.6985 12.6211 12.4743 11.6309C12.4141 11.3731 12.3758 11.1563 12.3868 11.1446C12.4086 11.1211 17.3524 8.85943 17.3961 8.85357C17.4125 8.84771 17.5165 9.00005 17.6258 9.18169ZM7.57427 11.1856C7.88052 11.3321 8.17583 11.7071 8.29068 12.0997C8.37271 12.3809 8.37818 12.4747 8.32349 12.7618C8.05552 14.1504 6.31646 14.379 5.76411 13.0958C5.23364 11.877 6.40943 10.6407 7.57427 11.1856ZM8.24693 15.211C8.77739 15.4161 9.22583 15.8555 9.48833 16.418C9.59224 16.6465 9.67974 16.8809 9.67974 16.9395C9.67974 17.086 9.01802 17.4961 8.44927 17.7012C7.12036 18.1817 5.61099 17.9708 4.50083 17.1622L4.27114 16.9922L4.35318 16.7344C4.62661 15.879 5.37583 15.2051 6.21255 15.0586C6.39302 15.0294 6.83599 15.0176 7.19693 15.0294C7.73833 15.0528 7.92974 15.0821 8.24693 15.211ZM26.1079 16.1192C26.3922 16.2012 26.879 16.7227 26.9555 17.0274C27.1469 17.7598 26.8899 18.4336 26.2938 18.7793C25.3969 19.3008 24.3141 18.5977 24.3141 17.4903C24.3141 16.5059 25.1782 15.8438 26.1079 16.1192ZM17.6641 19.2481C19.6438 19.9102 20.9454 21.8028 20.9454 24.0176C20.9454 25.0313 20.6938 25.9102 20.1688 26.754C20.0211 26.9942 19.8899 27.1876 19.879 27.1876C19.868 27.1876 19.775 27.0235 19.6821 26.8243C19.4524 26.3614 18.7852 25.6348 18.3696 25.4004L18.0579 25.2305L18.1891 25.0489C18.7086 24.3106 18.8125 23.2676 18.4407 22.4239C17.593 20.502 15.0555 20.502 14.2079 22.4239C13.836 23.2676 13.9399 24.3106 14.4594 25.0489L14.5907 25.2305L14.279 25.4004C13.8688 25.629 13.136 26.42 12.9665 26.8184C12.8899 26.9883 12.8133 27.129 12.786 27.129C12.7149 27.129 12.3758 26.5958 12.1735 26.1504C11.8344 25.4122 11.7305 24.9317 11.736 23.9942C11.736 23.3965 11.7633 23.0684 11.829 22.793C11.9657 22.2481 12.4196 21.3047 12.7586 20.8594C13.4422 19.9629 14.4758 19.3243 15.6407 19.0782C15.7172 19.0665 16.1 19.0606 16.4883 19.0723C17.068 19.0899 17.2868 19.1251 17.6641 19.2481ZM2.94224 20.7247C3.46724 20.9883 3.79536 21.6797 3.67505 22.254C3.52193 22.9688 2.98052 23.4434 2.3188 23.4434C1.57505 23.4434 0.984426 22.8106 0.984426 22.002C0.984426 21.2813 1.43286 20.7071 2.09458 20.5723C2.39536 20.5137 2.59224 20.5489 2.94224 20.7247ZM16.9368 22.1954C17.1938 22.336 17.4836 22.67 17.593 22.9629C17.6969 23.2266 17.6969 23.7657 17.593 24.0293C17.2977 24.7969 16.4555 25.1602 15.7774 24.8204C15.2743 24.5743 14.9735 24.0762 14.9735 23.4961C14.9735 22.8399 15.3508 22.3008 15.9688 22.084C16.1875 22.0079 16.6961 22.0665 16.9368 22.1954ZM7.14771 25.2071C7.75474 25.5352 8.05005 26.3672 7.79302 27.0586C7.67818 27.3633 7.22974 27.8086 6.9563 27.8907C6.45864 28.0372 5.99927 27.9258 5.6438 27.5801C5.32661 27.2696 5.18443 26.9239 5.18443 26.4786C5.18443 25.4063 6.23989 24.7208 7.14771 25.2071ZM17.2321 26.0977C17.4344 26.1446 17.7024 26.2383 17.8336 26.3145C18.1727 26.4961 18.6813 27.0704 18.8399 27.4336C19.0805 28.002 19.0805 28.0079 18.6868 28.254C17.8555 28.7813 17.1446 28.9747 16.1383 28.9336C15.5477 28.9102 15.3727 28.8751 14.9188 28.711C14.6235 28.6055 14.2188 28.4122 14.0165 28.2774C13.5954 27.9961 13.5844 27.961 13.8086 27.4336C13.9672 27.0704 14.4758 26.4961 14.8149 26.3086C14.9461 26.2383 15.2032 26.1446 15.3891 26.1036C15.8321 25.9981 16.7836 25.9981 17.2321 26.0977Z" fill="#11488B"/>
</g>
<defs>
<clipPath id="clip0_32_3015">
<rect width="28" height="30" fill="white"/>
</clipPath>
</defs>
</svg>
