<svg width="90" height="89" viewBox="0 0 90 89" fill="none" xmlns="http://www.w3.org/2000/svg">
<g clip-path="url(#clip0_32_3634)">
<path d="M14.3086 0.486721C13.4648 1.09512 13.0605 1.91211 12.7793 3.65039C12.5684 4.88457 12.5332 4.9541 11.9883 5.11055C11.4785 5.24961 11.3027 5.19746 10.1953 4.43262C9.17578 3.73731 8.78906 3.58086 7.99805 3.51133C6.62695 3.40703 6.22266 3.54609 5.0625 4.65859C3.76172 5.89277 3.51562 6.32734 3.51562 7.52676C3.51562 8.36113 3.62109 8.62188 4.39453 9.80391C5.32617 11.2119 5.37891 11.3857 5.08008 12.0463C4.92188 12.3939 4.69336 12.4809 3.58594 12.6547C1.95117 12.9154 1.01953 13.3674 0.439453 14.2018C0.0351562 14.7928 0 15.0188 0 16.6875C0 18.3563 0.0351562 18.5822 0.439453 19.1732C1.01953 20.0076 1.70508 20.3379 3.51562 20.6855C4.95703 20.9463 5.00977 20.9637 5.16797 21.5025C5.30859 22.024 5.23828 22.1979 4.41211 23.3973C3.58594 24.5967 3.51562 24.8053 3.51562 25.7092C3.51562 26.8564 4.02539 27.8299 5.23828 28.8902C6.76758 30.2461 8.13867 30.1592 10.3887 28.56C11.0215 28.108 11.3379 27.9863 11.6367 28.0732C12.3223 28.2818 12.4453 28.4904 12.6562 29.7768C12.9375 31.4107 13.377 32.2277 14.2734 32.8014C14.9414 33.2533 15.1523 33.2881 16.6816 33.2881C18.0527 33.2881 18.5098 33.2186 19.0723 32.923C20.0742 32.4189 20.6895 31.3412 20.9531 29.6898C21.1465 28.3861 21.1816 28.334 21.7441 28.1428C22.2891 27.9689 22.4121 28.0211 23.625 28.8207C24.3281 29.29 25.207 29.7246 25.541 29.7941C26.9824 30.0549 28.6875 29.1162 29.7422 27.4822C30.1289 26.8564 30.2344 26.5088 30.2344 25.7092C30.2344 24.8227 30.1465 24.5967 29.3555 23.3973C28.8809 22.6672 28.4766 21.9371 28.4766 21.7633C28.4766 21.1201 28.9688 20.7377 29.918 20.616C31.3945 20.4248 32.1152 20.1814 32.6953 19.7121C33.5742 18.9646 33.75 18.4605 33.75 16.6006C33.75 13.8367 33.1348 13.1066 30.3223 12.5504C28.8105 12.2723 28.7402 12.2375 28.5996 11.6986C28.4414 11.2119 28.5293 11.0207 29.3379 9.82129C30.1465 8.62188 30.2344 8.3959 30.2344 7.54414C30.2344 6.36211 29.9883 5.89277 28.793 4.76289C27.5977 3.61563 27.3164 3.47656 26.0508 3.47656C25.084 3.47656 24.8906 3.54609 23.6426 4.36309C22.5352 5.07578 22.2012 5.21485 21.7793 5.12793C21.1465 4.98887 21.0059 4.74551 20.7422 3.18106C20.5137 1.77305 20.0742 0.990822 19.1777 0.399807C18.6504 0.0521507 18.3691 0 16.7871 0C15.0996 0 14.959 0.0347672 14.3086 0.486721ZM17.6133 4.27617C17.9824 6.1709 18.457 6.88359 19.793 7.59629C21.7266 8.60449 22.7461 8.53496 24.5742 7.21387C25.1719 6.7793 25.7168 6.43164 25.8047 6.43164C25.8926 6.43164 26.1738 6.65762 26.4375 6.93574L26.9297 7.43984L26.2441 8.37852C24.8027 10.2906 24.6797 11.0207 25.3828 12.9502C26.1387 15.0014 26.332 15.123 30.1992 15.7488C30.7441 15.8357 30.7617 15.8531 30.7617 16.6875V17.5393L29.7598 17.7305C27.2109 18.1998 26.6836 18.5301 25.8398 20.1641C25.3828 21.068 25.2246 21.7633 25.2949 22.8063C25.2949 23.0496 25.7168 23.8666 26.2266 24.5967L27.123 25.9178L26.5957 26.4566L26.0508 26.9955L24.7324 26.0742C22.8516 24.7705 21.6211 24.7357 19.5117 25.9178C18.5977 26.4393 18.2812 26.9955 17.9824 28.56C17.8418 29.3422 17.6836 30.0896 17.6484 30.1939C17.6133 30.333 17.2793 30.4199 16.8047 30.4199C15.9258 30.4199 15.9258 30.4025 15.7148 28.9424C15.4688 27.0998 14.8887 26.3002 13.2715 25.5354C12.498 25.1703 11.9531 25.0312 11.2148 25.0312C10.3184 25.0312 10.1074 25.1182 8.87695 25.9352L7.54102 26.8217L7.08398 26.3697L6.62695 25.9178L7.52344 24.5967C8.36719 23.3625 8.4375 23.1887 8.4375 22.2326C8.4375 21.3982 8.31445 20.9637 7.82227 20.0076C7.10156 18.5648 6.53906 18.1824 4.83398 17.9043C2.9707 17.6088 2.8125 17.5219 2.8125 16.7049C2.8125 15.8879 3.00586 15.7488 4.30664 15.575C6.46875 15.2795 7.29492 14.6711 8.01562 12.8459C8.68359 11.1771 8.56055 10.4992 7.38281 8.77832L6.45117 7.45723L6.99609 6.91836L7.54102 6.37949L8.50781 7.05742C10.5469 8.48281 11.2852 8.63926 12.8848 7.96133C14.8008 7.16172 15.1348 6.72715 15.5742 4.48477C15.7324 3.70254 15.8906 2.98985 15.9258 2.92031C15.9785 2.8334 16.3125 2.78125 16.6816 2.78125H17.332L17.6133 4.27617Z" fill="#BBE128"/>
<path d="M14.3965 9.87338C12.4805 10.5165 11.0566 11.7855 10.125 13.7324C9.61523 14.7753 9.58008 15.0013 9.58008 16.6874C9.58008 18.3736 9.61523 18.5996 10.1426 19.6773C10.8457 21.1722 12.0059 22.3021 13.5 22.9974C14.502 23.4667 14.9238 23.5537 16.3828 23.6058C17.6484 23.658 18.2988 23.6058 19.0195 23.3798C20.9707 22.754 22.5176 21.4156 23.3438 19.6599C24.0117 18.2345 24.1172 15.714 23.5547 14.2017C22.8164 12.1853 21.7266 11.038 19.7402 10.1341C18.3867 9.50834 15.8906 9.38666 14.3965 9.87338ZM18.1758 12.7589C18.5098 12.898 19.0898 13.2804 19.4766 13.6281C22.2715 16.1312 20.707 20.5986 16.9453 20.8246C15.5566 20.9115 14.5547 20.4769 13.5703 19.3818C11.707 17.2785 12.3926 14.1496 14.9766 12.8806C15.8555 12.446 17.2969 12.3939 18.1758 12.7589Z" fill="#BBE128"/>
<path d="M35.7715 11.5422C35.2266 12.0811 35.209 12.8285 35.7012 13.4369L36.0527 13.9063L59.9062 13.941C82.1953 13.9932 83.7949 14.0106 84.4102 14.2887C85.3945 14.758 86.2207 15.5576 86.6777 16.4789L87.0996 17.2959L87.1523 38.0162L87.2051 58.7539H45.7031H4.21875V45.2127C4.21875 32.5754 4.20117 31.6541 3.91992 31.3064C3.44531 30.7328 2.47852 30.6459 1.88086 31.1152L1.40625 31.4977L1.44141 51.6965L1.49414 71.8779L2.05664 73.0252C2.77734 74.4506 4.00781 75.6326 5.58984 76.3627L6.76758 76.9189L45.1582 76.9711C87.5918 77.0059 84.6562 77.0928 86.6426 75.9107C87.8379 75.198 88.6641 74.2594 89.3672 72.834L89.9121 71.7041V43.9785V16.2529L89.3496 15.1057C88.6465 13.715 87.2402 12.3418 85.834 11.6813L84.8145 11.2119L60.5039 11.1598L36.1934 11.125L35.7715 11.5422ZM87.1875 66.159C87.1875 68.9055 87.1172 70.6959 86.9766 71.1131C86.7129 71.9996 85.7637 73.0947 84.832 73.5814L84.1113 73.9639H45.791H7.4707L6.76758 73.5814C5.85352 73.0947 5.00977 72.2256 4.62305 71.3564C4.37695 70.7654 4.30664 69.9658 4.25391 66.2633L4.18359 61.8828H45.6855H87.1875V66.159Z" fill="#BBE128"/>
<path d="M44.1387 64.0382C42.5215 64.6118 41.4844 66.1589 41.4844 67.9841C41.502 70.4872 43.207 72.2081 45.7031 72.2081C48.1992 72.2081 49.9043 70.4872 49.9219 67.9841C49.9219 65.481 48.1465 63.7775 45.5977 63.8122C45.123 63.8122 44.4727 63.9165 44.1387 64.0382ZM46.4766 66.9411C46.8105 67.2019 46.9336 67.4626 46.9336 67.8798C46.9336 68.5056 46.3008 69.1835 45.7031 69.1835C45.5273 69.1835 45.1934 69.0271 44.9297 68.8185C44.3496 68.3665 44.3145 67.5495 44.8594 66.9759C45.334 66.4718 45.8613 66.4718 46.4766 66.9411Z" fill="#BBE128"/>
<path d="M44.033 17.5393C43.2947 17.7305 42.8729 17.9739 42.3455 18.5475C41.783 19.1385 41.5721 19.7817 41.3084 21.6416L41.0975 23.0322L40.3768 23.3451C39.9725 23.5016 39.5506 23.6406 39.4451 23.6406C39.3397 23.6406 38.7244 23.2408 38.074 22.7541C36.6854 21.7112 35.9295 21.3809 35.033 21.3809C34.0135 21.3983 33.0467 21.9197 32.0271 23.0322C29.9705 25.2572 29.9354 26.4219 31.8865 28.8033L32.9939 30.1592L32.6248 30.9414L32.2557 31.7237L30.5857 32.0018C28.6346 32.3147 27.9666 32.6102 27.2986 33.4967C26.8416 34.0877 26.8064 34.2442 26.7537 36.2084C26.6834 38.5725 26.8064 39.0071 27.7732 39.8588C28.3357 40.3629 28.617 40.4846 29.9002 40.6584C30.7088 40.7801 31.5174 40.9192 31.6932 40.9713C31.992 41.0408 32.6951 42.1881 32.6951 42.5879C32.6951 42.6922 32.3436 43.2311 31.9217 43.7699C30.6033 45.4735 30.41 45.8906 30.41 46.951C30.41 48.0983 30.9373 49.0022 32.3436 50.3059C33.3455 51.2446 33.8377 51.4531 34.8924 51.4531C35.9471 51.4531 36.3514 51.2793 37.8807 50.1321L39.1814 49.1586L40.0252 49.4715C40.4822 49.6453 40.8865 49.7844 40.9041 49.8018C40.9217 49.8018 41.0623 50.5666 41.2029 51.4879C41.4842 53.3479 41.7479 53.991 42.5389 54.6516C43.3299 55.2947 44.2088 55.5033 45.9842 55.4164C48.8143 55.2947 49.5525 54.6168 50.0447 51.5922C50.326 49.7844 50.3436 49.7496 50.9236 49.4715C51.2576 49.3151 51.6268 49.1934 51.7498 49.1934C51.8729 49.1934 52.5936 49.628 53.3143 50.1494C55.4588 51.6965 56.4783 51.9572 57.9373 51.2967C58.9041 50.8621 60.7674 48.7414 60.9256 47.8897C61.1717 46.6033 60.9256 45.8037 59.9061 44.4653C59.3787 43.7699 58.9041 43.1094 58.8338 43.0051C58.7635 42.8834 58.8689 42.4489 59.0623 42.049L59.3963 41.2842L61.1717 41.0061C64.2654 40.502 65.0389 39.6155 65.0389 36.5735C65.0213 33.5141 64.3182 32.6797 61.242 32.1582C60.2225 31.9844 59.3787 31.8106 59.3436 31.7758C59.326 31.7584 59.1678 31.3934 58.992 30.9936C58.6229 30.194 58.5877 30.2809 59.9061 28.5426C60.9256 27.2041 61.1717 26.4045 60.9256 25.1182C60.785 24.4055 58.992 22.2326 58.2186 21.8328C56.7947 21.1201 55.3357 21.3983 53.5252 22.7541C52.8748 23.2408 52.2244 23.6406 52.1189 23.6406C51.9432 23.6406 50.6248 23.1713 50.5018 23.0496C50.4842 23.0322 50.3436 22.25 50.1854 21.294C49.7107 18.3563 48.867 17.5393 46.16 17.4524C45.2811 17.4176 44.3318 17.4524 44.033 17.5393ZM47.1268 22.6151C47.5662 25.1356 47.9529 25.6918 49.9568 26.5957C51.1873 27.1346 52.1717 27.2563 52.9979 26.9434C53.2439 26.8565 54.0701 26.3002 54.826 25.744L56.1971 24.701L56.9529 25.4658L57.6912 26.2133L56.6014 27.6387C56.0037 28.4035 55.4412 29.2901 55.3533 29.603C54.9139 31.0805 56.2147 33.9313 57.6561 34.6787C57.9022 34.8004 58.7811 35.009 59.5896 35.1133C61.6463 35.4088 61.699 35.4436 61.699 36.5908C61.699 37.0949 61.6287 37.5817 61.5232 37.6338C61.4354 37.686 60.6268 37.8598 59.7479 37.9988C57.9022 38.2944 57.3045 38.5551 56.7244 39.3199C56.1971 40.0153 55.3709 42.049 55.3709 42.6401C55.3709 43.318 55.74 44.1524 56.6541 45.5778L57.5154 46.9162L56.8475 47.7158C56.4783 48.1504 56.074 48.4633 55.951 48.4285C55.8279 48.3764 55.1248 47.8897 54.3689 47.3334C53.033 46.3252 53.0154 46.3252 51.785 46.3252C50.7303 46.3252 50.3611 46.4121 49.3416 46.8989C47.742 47.6811 47.3729 48.2547 46.9686 50.6014L46.6697 52.4092H45.615H44.5779L44.2791 50.6188C43.8924 48.3069 43.5057 47.6985 41.9061 46.9162C41.0623 46.499 40.4295 46.3252 39.6561 46.2731L38.5838 46.2209L37.0369 47.3856L35.49 48.5502L34.8045 47.8897C34.4178 47.5072 34.1014 47.1422 34.1014 47.0553C34.1014 46.9684 34.4529 46.4643 34.8748 45.9254C36.1404 44.2914 36.3865 43.7873 36.3865 42.8834C36.3865 41.8057 35.6658 40.0848 34.8397 39.233C34.1365 38.5203 33.6971 38.3639 31.4998 38.051L30.0408 37.8598L30.0936 36.7125L30.1463 35.5826L31.9041 35.2871C32.8885 35.1307 33.8377 34.9047 34.0135 34.8004C35.0682 34.2442 36.2107 32.0192 36.2107 30.559C36.2107 29.5508 35.9998 29.0989 34.699 27.4301C34.2771 26.8912 33.9256 26.4045 33.9256 26.3524C33.9256 26.1785 35.1912 24.8574 35.3494 24.8574C35.4373 24.8574 36.1404 25.3268 36.9139 25.883C38.8826 27.3432 39.7088 27.4301 41.9236 26.4219C43.6639 25.6397 44.1033 24.927 44.4725 22.3717L44.6834 20.842L45.7732 20.8942L46.8455 20.9463L47.1268 22.6151Z" fill="#BBE128"/>
<path d="M42.9784 28.9075C39.0058 30.4025 36.8261 34.4874 37.8808 38.4681C38.2675 39.9283 38.7773 40.7974 39.9374 41.9968C43.0663 45.23 48.164 45.2474 51.3983 42.0142C55.3534 38.1031 54.2636 31.7062 49.2362 29.2378C47.9882 28.6294 47.83 28.5947 45.9843 28.5425C44.3144 28.5077 43.8749 28.5599 42.9784 28.9075ZM47.7245 31.88C48.7968 32.3841 49.7812 33.3402 50.3085 34.4005C50.871 35.513 50.871 37.4947 50.3085 38.555C48.3046 42.3271 43.2773 42.414 41.2206 38.7462C40.5175 37.4947 40.4648 35.6347 41.0976 34.4005C42.3456 31.88 45.3163 30.7501 47.7245 31.88Z" fill="#BBE128"/>
<path d="M32.9587 80.2217C32.5368 80.6388 32.5192 80.7084 32.5192 83.4375V86.2187H29.8122C28.3181 86.2187 26.9646 86.2709 26.8064 86.323C26.3669 86.4968 25.9802 87.4008 26.1032 87.9744C26.3493 89.0695 25.154 89 45.6325 89C55.8982 89 64.4411 88.9478 64.5993 88.8957C65.0388 88.7218 65.4255 87.8179 65.3024 87.2443C65.0915 86.323 64.7224 86.2187 61.5759 86.2187H58.7107V83.4375C58.7107 80.7084 58.6931 80.6388 58.2712 80.2217C57.6911 79.6306 56.7419 79.6306 56.1618 80.2217C55.74 80.6388 55.7224 80.7084 55.7224 83.4375V86.2187H45.615H35.5075V83.4375C35.5075 80.7084 35.4899 80.6388 35.0681 80.2217C34.7868 79.9261 34.4528 79.7871 34.0134 79.7871C33.5739 79.7871 33.2399 79.9261 32.9587 80.2217Z" fill="#BBE128"/>
</g>
<defs>
<clipPath id="clip0_32_3634">
<rect width="90" height="89" fill="white"/>
</clipPath>
</defs>
</svg>
