<svg width="28" height="30" viewBox="0 0 28 30" fill="none" xmlns="http://www.w3.org/2000/svg">
<path d="M17.8061 1.19531C17.5545 1.29492 17.2428 1.59961 17.1498 1.8457C17.1115 1.93945 17.0459 2.20312 17.0076 2.43164C16.9201 2.95898 16.8818 3.02344 16.6576 3.10547C16.4772 3.16992 16.4443 3.1582 16.0615 2.87695C15.5475 2.50781 15.2576 2.41992 14.8639 2.51953C14.6014 2.58984 14.5084 2.66602 13.9014 3.29883C13.3272 3.9082 13.2233 4.04883 13.1467 4.30664C13.01 4.76367 13.0701 5.05078 13.4311 5.64844L13.7373 6.15234L13.6334 6.36914C13.5404 6.58008 13.5186 6.5918 13.0592 6.69141C12.5233 6.80273 12.3154 6.90234 12.1131 7.13672C11.8451 7.44141 11.8014 7.68164 11.8233 8.73633C11.8397 9.56836 11.8561 9.72656 11.9545 9.93164C12.1186 10.2715 12.474 10.5059 12.9662 10.5996C13.524 10.7109 13.5787 10.7402 13.6608 10.9746C13.7264 11.1738 13.7209 11.1973 13.4529 11.6309C12.8514 12.6211 12.9389 13.0488 13.9451 14.0859C14.4811 14.6367 14.7764 14.8184 15.1318 14.8242C15.4326 14.8242 15.5858 14.7598 16.0834 14.4082L16.499 14.1152L16.7014 14.2207C16.8108 14.2734 16.9147 14.373 16.9256 14.4434C16.942 14.5078 16.9912 14.7598 17.035 15C17.1389 15.5332 17.3248 15.8496 17.6584 16.0371C17.8826 16.1602 17.9647 16.1719 18.8233 16.1719C19.8076 16.1719 20.0154 16.125 20.2779 15.8613C20.4475 15.6973 20.5897 15.3809 20.6389 15.0879C20.7647 14.3379 20.7756 14.3145 20.9943 14.2266L21.2076 14.1387L21.6561 14.4492C22.1428 14.7891 22.3506 14.8594 22.7334 14.8008C23.0834 14.748 23.2529 14.625 23.9037 13.9043C24.4998 13.2422 24.6092 13.043 24.6092 12.5742C24.6092 12.2988 24.5162 12.0586 24.21 11.5723C23.9584 11.1738 23.9584 11.1738 24.0404 10.9629C24.0842 10.8516 24.1279 10.752 24.1389 10.7402C24.1443 10.7344 24.3576 10.6816 24.6092 10.6289C25.3092 10.4883 25.6045 10.2891 25.785 9.83203C25.8451 9.66211 25.867 9.38672 25.867 8.63086C25.867 7.75195 25.8561 7.62891 25.7522 7.39453C25.5826 7.02539 25.3092 6.83789 24.7623 6.71484C24.5108 6.65625 24.2701 6.60352 24.2209 6.58594C24.1772 6.57422 24.0951 6.46875 24.0404 6.35156L23.9475 6.13477L24.2209 5.68945C24.549 5.15625 24.6092 4.99219 24.6092 4.66992C24.6037 4.26562 24.4451 3.99609 23.7561 3.27539C22.8154 2.28516 22.542 2.23828 21.6287 2.87695C21.2295 3.1582 21.1967 3.16992 21.0326 3.09961C20.9397 3.05859 20.8467 3.01172 20.8248 2.99414C20.8029 2.97656 20.7373 2.70703 20.6772 2.4082C20.5404 1.75781 20.3818 1.45898 20.0537 1.27734C19.8459 1.1543 19.7365 1.14258 18.9217 1.13086C18.249 1.11914 17.9647 1.13672 17.8061 1.19531ZM19.6326 3.02344C19.7693 3.76172 19.8897 3.99609 20.1631 4.07227C20.2506 4.08984 20.5076 4.20117 20.7483 4.31836C21.0436 4.45898 21.224 4.51172 21.3279 4.48828C21.4154 4.4707 21.7272 4.28906 22.0225 4.08398L22.5693 3.70898L23.0123 4.21875L23.4553 4.72852L23.0943 5.30273C22.7717 5.82422 22.7443 5.89453 22.7662 6.11719C22.799 6.41016 23.16 7.36523 23.3076 7.54102C23.3897 7.63477 23.5756 7.69922 24.0678 7.79883L24.7186 7.93359V8.6543C24.7186 9.19336 24.7022 9.375 24.6529 9.375C24.4014 9.38672 23.3897 9.66797 23.2967 9.75586C23.242 9.80859 23.149 9.99023 23.0998 10.1602C23.0506 10.3242 22.9522 10.582 22.8811 10.7344C22.6678 11.1855 22.7006 11.373 23.1053 12.041L23.4553 12.627L23.0014 13.1191L22.5475 13.6055L22.0061 13.2188C21.3881 12.7734 21.2186 12.7441 20.792 12.9727C20.6498 13.0488 20.4037 13.1543 20.2506 13.207C20.092 13.2656 19.917 13.3711 19.8623 13.4473C19.8076 13.5176 19.7201 13.7988 19.6654 14.0684C19.6162 14.3379 19.5506 14.6543 19.5233 14.7656L19.474 14.9707L18.8233 14.9531L18.1779 14.9355L18.0576 14.2793C17.992 13.916 17.8936 13.5586 17.8389 13.4824C17.724 13.3125 16.8108 12.8906 16.4772 12.8496C16.2639 12.8203 16.1983 12.8555 15.6842 13.2129L15.1209 13.6113L14.6998 13.1191C14.4647 12.8496 14.2733 12.6094 14.2733 12.5801C14.2733 12.5566 14.4154 12.3047 14.5904 12.0234C14.7709 11.7422 14.9295 11.4434 14.9514 11.3496C14.9787 11.2324 14.9295 11.0508 14.7709 10.6465C14.6561 10.3535 14.5412 10.0488 14.5248 9.97852C14.4537 9.74414 14.2404 9.63281 13.5897 9.48633L12.9553 9.3457L12.9717 8.64844L12.9881 7.94531L13.3436 7.86914C13.5404 7.82812 13.8248 7.76367 13.9834 7.72852C14.2951 7.66406 14.5139 7.4707 14.574 7.21875C14.5904 7.13086 14.6943 6.85547 14.8037 6.60352C14.9404 6.26953 14.9842 6.09961 14.9568 5.98828C14.9404 5.90039 14.7764 5.58398 14.5959 5.28516C14.4209 4.98633 14.2733 4.72266 14.2733 4.69922C14.2733 4.64648 15.11 3.75 15.1592 3.75C15.1811 3.75 15.4272 3.9082 15.7006 4.10156C15.974 4.29492 16.2639 4.4707 16.3404 4.49414C16.4279 4.51758 16.5756 4.48242 16.7561 4.39453C16.9092 4.32422 17.1826 4.20703 17.3576 4.13086C17.8389 3.9375 17.899 3.84961 18.0412 3.15234C18.1068 2.81836 18.1779 2.50195 18.1889 2.44336C18.2162 2.35547 18.2983 2.34375 18.8615 2.34375H19.5068L19.6326 3.02344Z" fill="#11488B"/>
<path d="M18.156 5.25C16.7451 5.57227 15.6951 6.88477 15.6021 8.4375C15.5201 9.84961 16.231 11.1738 17.3959 11.7656C17.9373 12.041 18.2818 12.1289 18.856 12.1289C20.1029 12.123 21.2295 11.373 21.7545 10.1953C22.0115 9.61523 22.0935 9.24023 22.0935 8.6543C22.0881 7.80469 21.9295 7.5 21.492 7.5C21.2896 7.5 21.2021 7.5293 21.0927 7.64648C20.9615 7.78711 20.956 7.83984 20.9341 8.54297C20.9177 9.24023 20.9013 9.31055 20.7427 9.63867C20.1904 10.7871 18.9709 11.2266 17.9045 10.6641C16.756 10.0605 16.3787 8.49023 17.1115 7.36523C17.5599 6.67969 18.1943 6.36914 19.0966 6.39844C19.6162 6.41602 19.6326 6.41016 19.7802 6.25195C19.9826 6.03516 19.9935 5.64844 19.8021 5.42578C19.5724 5.16211 18.8615 5.08594 18.156 5.25Z" fill="#11488B"/>
<path d="M2.32422 4.62305C1.8375 4.75196 1.42188 5.10938 1.19766 5.60156L1.06641 5.88867V14.4141V22.9395L1.21953 23.2734C1.40547 23.6777 1.71719 23.9824 2.11641 24.1406C2.40625 24.2578 2.52656 24.2578 14 24.2578C25.4734 24.2578 25.5938 24.2578 25.8836 24.1406C26.2828 23.9824 26.5945 23.6777 26.7805 23.2734L26.9336 22.9395V17.6836V12.4219L26.7805 12.2637C26.5672 12.0293 26.2062 12.0293 25.993 12.2637L25.8398 12.4219L25.8125 17.584L25.7852 22.7461L25.632 22.8867L25.4789 23.0273H13.9945H2.50469L2.34609 22.8574L2.1875 22.6875V14.4141V6.14063L2.34609 5.97071L2.50469 5.80078H6.69922C10.3305 5.80078 10.9102 5.78906 11.0469 5.71289C11.2437 5.60156 11.3203 5.46094 11.3203 5.18555C11.3203 4.91602 11.1945 4.71094 10.9812 4.63477C10.7898 4.5586 2.59766 4.55274 2.32422 4.62305Z" fill="#11488B"/>
<path d="M4.65986 19.0488C4.25517 19.1777 4.15674 19.7402 4.48486 20.0508L4.64892 20.2148H5.66611H6.6833L6.84189 20.0449C6.96767 19.9043 7.00049 19.8223 7.00049 19.6172C7.00049 19.2949 6.89111 19.125 6.62861 19.043C6.37705 18.9727 4.90595 18.9727 4.65986 19.0488Z" fill="#11488B"/>
<path d="M8.96844 19.0488C8.64578 19.1894 8.50906 19.5292 8.64031 19.8691C8.7825 20.2382 8.32313 20.2148 16.1817 20.2148H23.3513L23.5153 20.0507C23.8544 19.7285 23.745 19.1777 23.313 19.0488C23.0341 18.9667 9.16531 18.9667 8.96844 19.0488Z" fill="#11488B"/>
<path d="M10.9266 25.541L10.7461 25.7109L10.7297 26.6836L10.7079 27.6562H10.1446C9.5102 27.6562 9.32973 27.7148 9.20941 27.9551C9.05082 28.2891 9.14926 28.6523 9.43363 28.7988C9.59223 28.875 10.1555 28.8867 14 28.8867C17.8446 28.8867 18.4079 28.875 18.5664 28.7988C18.8508 28.6523 18.9493 28.2891 18.7907 27.9551C18.6704 27.7148 18.4899 27.6562 17.8555 27.6562H17.2922L17.2704 26.7012C17.2539 25.6875 17.2211 25.5586 16.9696 25.4355C16.7235 25.3184 16.4664 25.3594 16.2914 25.541L16.1329 25.7109V26.6836V27.6562H14H11.8672V26.6836V25.7109L11.7086 25.541C11.4844 25.3008 11.1727 25.3008 10.9266 25.541Z" fill="#11488B"/>
</svg>
