<svg width="90" height="89" viewBox="0 0 90 89" fill="none" xmlns="http://www.w3.org/2000/svg">
<g clip-path="url(#clip0_32_3647)">
<path d="M51.9961 0.486721C50.6602 1.23418 50.0977 2.25977 49.8867 4.32832C49.834 4.67598 49.623 4.81504 48.5156 5.19746C47.7949 5.45821 46.6348 5.92754 45.9316 6.24043L44.666 6.83145L44.0156 6.25782C43.6465 5.94492 43.1016 5.57988 42.7852 5.45821C41.9414 5.11055 40.3066 5.1627 39.4629 5.54512C38.5312 5.97969 33.5039 11.0033 33.1348 11.8551C32.5723 13.2283 32.9062 15.0188 34.0137 16.3051L34.5059 16.8787L33.9434 18.0781C33.627 18.7213 33.1523 19.8859 32.8887 20.6334C32.4668 21.7633 32.3086 21.9893 31.9746 22.0414C30.4277 22.1979 30.0059 22.3195 29.3203 22.7715C28.8281 23.0844 28.3535 23.6059 28.0723 24.1447L27.5977 24.9965V29.0119C27.5977 32.2625 27.6504 33.1664 27.8789 33.6879C28.4414 35.0438 29.7949 35.965 31.4473 36.1041L32.4316 36.191L32.8359 37.4426C33.0645 38.1205 33.5391 39.2852 33.9082 40.0326L34.5586 41.3711L34.084 41.823C33.8203 42.0838 33.4336 42.6748 33.2227 43.1615C32.7305 44.2566 32.8008 45.8906 33.3633 46.7945C33.5566 47.1074 34.9453 48.5502 36.4219 49.993C38.5488 52.0441 39.2695 52.6525 39.832 52.809C41.4141 53.2609 42.8203 52.948 44.1211 51.8355L44.7188 51.3314L46.0547 51.9746C46.7754 52.3396 47.9531 52.809 48.6562 53.035C49.9043 53.4174 49.9219 53.4521 49.9219 54.0258C49.9219 55.6771 50.9062 57.2764 52.2773 57.9021C52.9102 58.1803 53.4902 58.2324 57.041 58.2324C60.5918 58.2324 61.1719 58.1803 61.8047 57.9021C63.1758 57.2764 64.1602 55.6771 64.1602 54.0258C64.1602 53.4695 64.1953 53.4348 65.4434 53.035C66.1289 52.809 67.3242 52.3396 68.0625 51.9746L69.416 51.3314L69.8027 51.7313C70.418 52.3918 71.8594 53.0176 72.7383 53.0176C74.4082 53.0176 74.7773 52.7916 77.7305 49.9061C79.4004 48.2895 80.6484 46.9336 80.8594 46.499C81.5273 45.1258 81.2461 43.2311 80.1738 42.0316L79.541 41.3363L80.1914 40.0152C80.543 39.2678 81.0176 38.1205 81.2461 37.4426L81.6504 36.191L82.6348 36.1041C84.2871 35.965 85.6406 35.0438 86.2031 33.6879C86.4316 33.1664 86.4844 32.2625 86.4844 29.0119V24.9965L86.0098 24.1447C85.7285 23.6059 85.2539 23.0844 84.7617 22.7715C84.0762 22.3195 83.6543 22.1979 82.1074 22.0414C81.7734 21.9893 81.6152 21.7633 81.1934 20.6334C80.9297 19.8859 80.4551 18.7213 80.1387 18.0781L79.5762 16.8787L80.0684 16.3051C81.1758 15.0188 81.5098 13.2283 80.9473 11.8551C80.5781 11.0033 75.5508 5.97969 74.6191 5.54512C73.7754 5.1627 72.1406 5.11055 71.2969 5.45821C70.9805 5.57988 70.4355 5.94492 70.0664 6.25782L69.416 6.83145L68.1504 6.24043C67.4473 5.92754 66.2871 5.45821 65.5664 5.19746L64.248 4.72813L64.1426 3.87637C63.9668 2.55527 63.668 1.84258 63.0352 1.18203C61.9277 0.0521507 61.6816 3.8147e-06 57.0059 3.8147e-06H52.8223L51.9961 0.486721ZM60.2578 3.68516C60.3809 3.80684 60.4688 4.43262 60.4688 5.24961C60.4688 6.70977 60.7324 7.50938 61.2949 7.73536C61.4707 7.80489 62.2793 8.04824 63.1055 8.27422C64.8457 8.77832 66.5684 9.5084 68.0273 10.3602C68.7656 10.7947 69.2578 10.9512 69.8203 10.9512C70.5234 10.9512 70.6641 10.8643 71.6309 9.90821C72.2109 9.33457 72.7559 8.86524 72.8613 8.86524C72.9668 8.86524 74.0566 9.87344 75.3047 11.1076L77.5723 13.3674L76.5176 14.4799C74.9883 16.0965 74.9883 16.2529 76.377 18.9646C76.9922 20.1988 77.7129 21.885 77.9766 22.7193C78.8555 25.657 78.8027 25.6049 81.123 25.7266L82.7051 25.8135V29.1162V32.4189L81.0176 32.5059C80.0332 32.558 79.2246 32.6797 79.0664 32.8188C78.7324 33.0795 78.5742 33.4967 77.959 35.5131C77.7129 36.3648 76.9922 38.0336 76.3594 39.2504C74.9883 41.91 75.0059 42.049 76.4824 43.5439C77.0449 44.1176 77.5195 44.6738 77.5195 44.7607C77.5195 44.865 76.5 45.9428 75.252 47.177L72.9668 49.4193L71.8242 48.3764C70.1719 46.8467 70.0488 46.8293 67.2539 48.2025C65.9883 48.8283 64.7754 49.402 64.5645 49.4541L64.1602 49.5584V45.9428V42.3271L64.9688 41.8926C67.0957 40.7801 69.6094 38.3986 70.875 36.2953C72.5273 33.5488 73.2129 30.785 73.0723 27.5691C72.8613 22.702 70.6992 18.7039 66.7441 15.7836C63.9316 13.7324 61.6465 13.8367 60.627 16.0791C60.3281 16.7049 60.293 17.3133 60.293 22.3891C60.293 28.4904 60.2578 28.7686 59.2734 29.7768C58.6758 30.4025 57.6387 30.9414 57.041 30.9414C56.4434 30.9414 55.4062 30.4025 54.8086 29.7768C53.8242 28.7686 53.7891 28.473 53.7891 22.5629C53.7891 19.2949 53.7188 16.8613 53.5957 16.4615C53.1562 14.8623 51.6973 14.0453 49.9746 14.4277C48.3223 14.7928 45.7734 16.7397 44.0859 18.9473C40.9395 23.0496 40.0957 28.7164 41.9062 33.6357C43.1191 36.9385 46.0547 40.2934 49.1133 41.8926L49.9219 42.3271V45.9428V49.5584L49.5352 49.4541C49.3066 49.402 48.0938 48.8283 46.8281 48.2025C44.0508 46.8293 43.9102 46.8293 42.2578 48.3764L41.1152 49.4193L38.8301 47.177C37.582 45.9428 36.5625 44.865 36.5625 44.7607C36.5625 44.6738 37.0371 44.1176 37.5996 43.5439C39.0762 42.049 39.0938 41.91 37.7227 39.2504C37.0898 38.0336 36.3691 36.3648 36.123 35.5131C35.5078 33.4967 35.3496 33.0795 35.0156 32.8188C34.8574 32.6797 34.0488 32.558 33.0645 32.5059L31.377 32.4189V29.1162V25.8135L32.959 25.7266C35.2793 25.6049 35.2266 25.657 36.1055 22.7193C36.3691 21.885 37.0898 20.1814 37.7227 18.9473C39.1113 16.2355 39.1113 16.1139 37.5645 14.4973L36.5098 13.3674L38.7773 11.1076C40.0254 9.87344 41.1152 8.86524 41.2207 8.86524C41.3262 8.86524 41.8711 9.33457 42.4512 9.90821C43.418 10.8816 43.5586 10.9512 44.2969 10.9512C44.7363 10.9512 45.2637 10.8295 45.4746 10.6904C46.3535 10.082 49.0781 8.86524 50.5371 8.43067C53.543 7.54414 53.6133 7.45723 53.6133 5.24961C53.6133 4.43262 53.7012 3.80684 53.8242 3.68516C54.123 3.38965 59.959 3.38965 60.2578 3.68516ZM50.7656 30.4721C51.5039 31.9496 52.752 33.1838 54.2637 33.9313C55.3535 34.4527 55.582 34.5049 57.041 34.5049C58.2891 34.4875 58.7988 34.418 59.4668 34.1051C61.5586 33.1664 63 31.602 63.6504 29.5682C63.9492 28.5947 63.9844 27.9342 63.9844 23.4494V18.4084L64.3887 18.617C64.5996 18.7387 65.3379 19.3992 66.041 20.0945C69.1699 23.2756 70.2246 27.882 68.7832 32.0018C67.7285 35.0264 65.584 37.4252 62.6484 38.868C61.752 39.3025 60.9082 39.7893 60.7852 39.9457C60.6094 40.1369 60.5391 41.8752 60.4688 47.3508L60.3809 54.4951H57.041H53.7012L53.6133 47.3508C53.543 41.8752 53.4727 40.1369 53.2969 39.9457C53.1738 39.7893 52.3301 39.3025 51.4336 38.868C45.4395 35.9129 42.9961 29.0293 45.8613 23.1887C46.6523 21.5895 47.8301 20.0771 49.1133 19.0863L50.0098 18.3736L50.0977 23.8318L50.1855 29.29L50.7656 30.4721Z" fill="#BBE128"/>
<path d="M6.24066 58.1281C5.2387 58.58 4.37738 59.397 3.92035 60.3009C3.62152 60.8746 3.60394 61.7263 3.5512 71.3216C3.51605 81.1777 3.53363 81.7513 3.83245 82.464C4.30706 83.4896 5.13324 84.3761 6.11761 84.8455C6.90863 85.2453 7.15472 85.2627 11.2856 85.3148C14.8364 85.3669 15.8032 85.3322 16.5766 85.1062C17.6489 84.7933 18.9145 83.8025 19.4242 82.8464L19.7758 82.2207H21.9555H24.1528L34.3481 84.9324C50.8012 89.3128 49.4125 88.9826 51.5043 89C53.8071 89 54.9496 88.7218 57.2172 87.6267C58.8696 86.8271 63.0707 84.0111 63.6332 83.3332C63.7739 83.1767 63.8969 82.69 63.8969 82.2728C63.8969 81.6123 63.809 81.421 63.3168 80.9865C62.4379 80.2043 61.8227 80.2912 60.0825 81.4732C59.2739 82.0121 58.1137 82.8117 57.4809 83.2462C56.8481 83.6634 55.7407 84.2892 55.02 84.6195C53.8598 85.1584 53.4907 85.2453 52.0317 85.3148C50.1157 85.3843 51.8559 85.7841 35.2797 81.3689L24.7504 78.5703H22.395H20.0395V71.5476V64.5423L21.9379 64.4554C23.6254 64.3685 24.0649 64.2816 26.2797 63.482C29.6899 62.2826 31.2543 61.9871 33.6625 62.1087C35.2446 62.1783 35.8598 62.2826 37.1254 62.7519C38.9008 63.3951 41.2211 64.8552 43.0492 66.4892C45.141 68.3666 44.8774 68.3144 51.3285 68.3144C54.6332 68.3144 57.1293 68.3839 57.5336 68.5056C57.8852 68.5925 58.4653 68.9402 58.7992 69.2705C60.1703 70.6437 59.8891 72.6427 58.1664 73.6857C57.5864 74.0334 57.3578 74.0507 49.3422 74.0507C40.518 74.0507 40.184 74.0855 39.727 74.9373C39.6039 75.1459 39.516 75.6326 39.516 76.0324C39.5336 76.606 39.6391 76.8494 40.0785 77.2144L40.6059 77.7011H49.2719C58.975 77.7011 58.975 77.7011 60.6625 76.5017C62.4028 75.2675 63.2992 73.5119 63.3344 71.2173L63.3696 69.8615L70.225 66.3675C74.0043 64.4554 77.4321 62.7693 77.8539 62.6476C79.2778 62.213 80.8598 62.9953 81.2113 64.3164C81.6684 65.9677 81.141 66.6109 77.0278 69.5138C74.9008 70.9914 73.4594 72.1212 73.3364 72.3994C72.9848 73.1642 73.0903 73.8248 73.6352 74.4332C74.0746 74.9199 74.268 75.0068 74.9184 75.0068C75.6215 75.0068 75.9731 74.8156 79.3129 72.4515C81.2992 71.0435 83.1449 69.6355 83.4086 69.3226C83.6899 69.0097 84.1469 68.2449 84.4457 67.6191C84.9203 66.6283 84.9906 66.298 84.9906 65.0117C84.9906 63.6906 84.9379 63.4125 84.4106 62.3695C83.7074 60.9441 82.4594 59.7794 81.0707 59.258C79.8051 58.7886 77.8012 58.7365 76.5531 59.1537C76.0785 59.3275 72.5102 61.0658 68.643 63.03C63.1938 65.7939 61.559 66.5587 61.3481 66.4197C59.0102 64.8031 58.9047 64.7857 52.2778 64.6814L46.477 64.5771L45.3344 63.5515C43.6469 62.0392 41.9594 60.8919 39.9907 59.9533C37.2485 58.6669 36.4575 58.4931 32.9594 58.5105C30.27 58.5105 29.7953 58.5627 28.2309 58.9798C27.2817 59.2406 25.7348 59.7447 24.8032 60.0923C23.3793 60.6486 22.8696 60.7529 21.4457 60.805L19.7758 60.8572L19.3012 59.988C19.0375 59.5187 18.5629 58.9277 18.2289 58.6843C17.0512 57.7978 16.5063 57.7109 11.6196 57.7109C7.27777 57.7109 7.08441 57.7283 6.24066 58.1281ZM15.7504 61.5003C16.3129 61.8654 16.3481 62.4043 16.3481 71.6171V80.8474L15.9086 81.2646C15.4867 81.6992 15.4868 81.6992 11.7426 81.6992C8.63128 81.6992 7.92816 81.647 7.59417 81.421L7.20745 81.1603V71.5824C7.20745 62.9084 7.24261 61.9697 7.50628 61.6742C7.76995 61.396 8.13909 61.3613 11.6723 61.3613C13.8168 61.3613 15.645 61.4308 15.7504 61.5003Z" fill="#BBE128"/>
<path d="M67.2891 76.467C66.8145 76.8842 66.709 77.0928 66.709 77.6838C66.709 79.4047 68.6602 80.2217 69.8906 79.0049C70.207 78.6746 70.3125 78.3965 70.3125 77.7881C70.3125 76.1193 68.5547 75.3545 67.2891 76.467Z" fill="#BBE128"/>
</g>
<defs>
<clipPath id="clip0_32_3647">
<rect width="90" height="89" fill="white"/>
</clipPath>
</defs>
</svg>
